<?xml version="1.0" encoding="UTF-8"?>
<!DOCTYPE svg PUBLIC "-//W3C//DTD SVG 1.1//EN" "http://www.w3.org/Graphics/SVG/1.1/DTD/svg11.dtd">
<svg xmlns="http://www.w3.org/2000/svg" version="1.1" width="2526px" height="712px" style="shape-rendering:geometricPrecision; text-rendering:geometricPrecision; image-rendering:optimizeQuality; fill-rule:evenodd; clip-rule:evenodd" xmlns:xlink="http://www.w3.org/1999/xlink">
<g><path style="opacity:0.835" fill="#fefffe" d="M 1856.5,69.5 C 1865.17,69.3336 1873.84,69.5002 1882.5,70C 1904.61,79.4096 1910.77,95.2429 1901,117.5C 1896.59,122.215 1891.76,126.382 1886.5,130C 1873.82,133.878 1861.48,133.045 1849.5,127.5C 1848.15,126.476 1847.48,125.143 1847.5,123.5C 1846.13,123.657 1844.79,123.49 1843.5,123C 1835.21,114.226 1832.38,103.726 1835,91.5C 1837.24,88.9503 1838.74,85.9503 1839.5,82.5C 1841.41,80.0096 1843.75,78.0096 1846.5,76.5C 1847.39,75.675 1847.72,74.675 1847.5,73.5C 1848.87,73.6567 1850.21,73.49 1851.5,73C 1853.43,72.0978 1855.1,70.9312 1856.5,69.5 Z"/></g>
<g><path style="opacity:0.9" fill="#fefffe" d="M 178.5,77.5 C 188.839,77.3335 199.172,77.5002 209.5,78C 210.672,78.4186 211.672,79.0853 212.5,80C 221.192,80.3544 229.859,81.0211 238.5,82C 239.167,82.6667 239.833,83.3333 240.5,84C 246.8,85.3963 253.134,86.563 259.5,87.5C 260.821,108.173 260.821,128.84 259.5,149.5C 258.127,149.657 256.793,149.49 255.5,149C 250.715,145.892 245.715,143.225 240.5,141C 236.198,140.455 232.198,139.122 228.5,137C 218,135.209 207.5,133.709 197,132.5C 187.076,133.747 177.243,135.247 167.5,137C 158.766,141.408 150.099,145.908 141.5,150.5C 141.254,153.47 139.588,154.803 136.5,154.5C 136.649,155.552 136.483,156.552 136,157.5C 131.612,162.714 127.445,168.048 123.5,173.5C 122.205,176.012 121.539,178.679 121.5,181.5C 120.5,181.5 119.5,181.5 118.5,181.5C 117.181,189.411 115.348,197.078 113,204.5C 112.167,216.181 112.334,227.848 113.5,239.5C 116.013,249.803 119.013,259.803 122.5,269.5C 123.5,269.5 124.5,269.5 125.5,269.5C 126.328,273.984 128.495,277.651 132,280.5C 132.483,281.448 132.649,282.448 132.5,283.5C 136.609,286.576 140.943,289.576 145.5,292.5C 146.167,293.5 146.833,294.5 147.5,295.5C 161.677,302.274 176.677,306.274 192.5,307.5C 198.487,306.858 204.487,306.358 210.5,306C 222.916,303.34 235.249,300.174 247.5,296.5C 247.5,295.5 247.5,294.5 247.5,293.5C 251.266,291.625 255.266,290.291 259.5,289.5C 260.833,308.833 260.833,328.167 259.5,347.5C 256.391,348.708 253.391,350.208 250.5,352C 246.779,352.62 243.112,353.453 239.5,354.5C 239.291,355.086 238.957,355.586 238.5,356C 231.872,357.052 225.206,357.552 218.5,357.5C 218.5,358.5 218.5,359.5 218.5,360.5C 206.402,360.435 194.402,361.101 182.5,362.5C 172.098,362.291 161.765,361.458 151.5,360C 150.833,359.333 150.167,358.667 149.5,358C 145.324,357.573 141.158,357.073 137,356.5C 132.587,354.107 127.754,352.607 122.5,352C 116.064,348.789 109.731,345.456 103.5,342C 98.0695,337.308 92.4028,333.141 86.5,329.5C 86.6495,328.448 86.4828,327.448 86,326.5C 81.6687,322.511 77.3354,318.511 73,314.5C 68.3416,306.563 63.675,298.563 59,290.5C 55.8687,281.137 52.8687,271.804 50,262.5C 48.8812,251.532 48.2145,240.532 48,229.5C 45.0529,227.006 45.0529,224.339 48,221.5C 48.2511,210.472 48.9178,199.472 50,188.5C 50.6667,187.833 51.3333,187.167 52,186.5C 53.4916,180.2 54.8249,173.867 56,167.5C 61.2319,156.703 66.7319,146.036 72.5,135.5C 73.5,135.5 74.5,135.5 75.5,135.5C 75.8333,133.5 76.1667,131.5 76.5,129.5C 77.675,129.719 78.675,129.386 79.5,128.5C 85.5768,121.62 91.9101,114.953 98.5,108.5C 100.071,107.691 101.738,107.357 103.5,107.5C 103.5,106.5 103.5,105.5 103.5,104.5C 113.097,98.4348 123.097,92.9348 133.5,88C 140.336,86.2946 147.003,84.2946 153.5,82C 160.83,81.1446 168.163,80.3113 175.5,79.5C 176.602,78.8243 177.602,78.1577 178.5,77.5 Z"/></g>
<g><path style="opacity:0.891" fill="#fefffe" d="M 381.5,77.5 C 392.172,77.3335 402.839,77.5002 413.5,78C 414.167,78.6667 414.833,79.3333 415.5,80C 424.531,80.2823 433.531,80.949 442.5,82C 449.582,84.859 456.915,87.0256 464.5,88.5C 465.5,107.822 465.833,127.155 465.5,146.5C 456.753,145.296 448.753,142.129 441.5,137C 434.797,135.056 428.13,133.223 421.5,131.5C 414.078,130.967 406.744,129.967 399.5,128.5C 391.483,129.759 383.483,131.259 375.5,133C 356.84,139.212 351.507,151.045 359.5,168.5C 362.705,172.073 366.371,174.739 370.5,176.5C 370.281,177.675 370.614,178.675 371.5,179.5C 378.986,182.703 386.319,186.203 393.5,190C 394.793,190.49 396.127,190.657 397.5,190.5C 397.5,191.5 397.5,192.5 397.5,193.5C 400.522,193.804 403.522,194.304 406.5,195C 422.129,202.615 437.129,211.449 451.5,221.5C 452.386,222.325 452.719,223.325 452.5,224.5C 453.552,224.351 454.552,224.517 455.5,225C 461.071,231.78 466.071,238.947 470.5,246.5C 478.15,269.092 478.316,291.758 471,314.5C 470.04,317.056 468.54,319.223 466.5,321C 465.852,322.44 465.519,323.94 465.5,325.5C 462.234,325.433 460.734,327.099 461,330.5C 458.5,332.333 456.333,334.5 454.5,337C 452.831,338.669 450.831,339.502 448.5,339.5C 448.719,340.675 448.386,341.675 447.5,342.5C 434.069,351.186 419.403,356.519 403.5,358.5C 403.291,359.086 402.957,359.586 402.5,360C 395.996,360.041 389.662,360.708 383.5,362C 373.5,362.667 363.5,362.667 353.5,362C 340.049,360.3 326.716,358.3 313.5,356C 313.043,355.586 312.709,355.086 312.5,354.5C 304.24,352.805 296.74,349.472 290,344.5C 289.333,325.167 289.333,305.833 290,286.5C 296.385,285.336 301.551,287.502 305.5,293C 306.793,293.49 308.127,293.657 309.5,293.5C 309.5,294.5 309.5,295.5 309.5,296.5C 311.927,296.523 314.26,297.023 316.5,298C 321.235,300.535 326.068,303.035 331,305.5C 348.993,311.179 367.493,312.512 386.5,309.5C 391.511,308.212 396.178,306.045 400.5,303C 409.558,296.732 412.558,288.232 409.5,277.5C 407.19,274.573 405.857,271.24 405.5,267.5C 393.467,259.638 380.8,252.472 367.5,246C 364.223,244.857 360.89,244.023 357.5,243.5C 357.5,242.5 357.5,241.5 357.5,240.5C 353.681,240.55 350.347,239.384 347.5,237C 345.122,236.489 342.788,235.822 340.5,235C 338.561,234.092 337.561,232.592 337.5,230.5C 335.073,230.477 332.74,229.977 330.5,229C 326.077,226.746 322.411,223.58 319.5,219.5C 317.632,218.087 315.632,216.92 313.5,216C 310.574,211.652 307.074,207.818 303,204.5C 300,199.211 297,193.878 294,188.5C 293.248,184.148 292.415,179.815 291.5,175.5C 290.914,175.291 290.414,174.957 290,174.5C 289.168,164.483 289.334,154.483 290.5,144.5C 291.086,144.291 291.586,143.957 292,143.5C 292.421,139.128 293.088,134.795 294,130.5C 296.843,126.971 298.843,122.971 300,118.5C 303.009,114.661 306.176,110.994 309.5,107.5C 310.386,106.675 310.719,105.675 310.5,104.5C 314.801,103.05 318.468,100.55 321.5,97C 327.187,93.9661 332.853,90.9661 338.5,88C 344.754,86.5819 350.754,84.5819 356.5,82C 364.5,81.1667 372.5,80.3333 380.5,79.5C 380.863,78.8165 381.196,78.1499 381.5,77.5 Z"/></g>
<g><path style="opacity:0.902" fill="#fefffe" d="M 996.5,77.5 C 1006.51,77.3335 1016.51,77.5002 1026.5,78C 1027.62,78.2492 1028.62,78.7492 1029.5,79.5C 1038.18,80.2461 1046.84,81.0794 1055.5,82C 1062.8,84.163 1070.13,85.9964 1077.5,87.5C 1077.83,108.076 1077.49,128.576 1076.5,149C 1075.5,149.667 1074.5,149.667 1073.5,149C 1071.54,147.015 1069.21,145.515 1066.5,144.5C 1049.9,137.684 1032.74,133.684 1015,132.5C 1005.08,133.747 995.243,135.247 985.5,137C 982.423,139.853 978.756,141.019 974.5,140.5C 974.5,141.5 974.5,142.5 974.5,143.5C 968.192,144.651 963.192,147.818 959.5,153C 957.975,154.009 956.308,154.509 954.5,154.5C 953.555,157.723 952.055,160.723 950,163.5C 948.989,164.337 947.822,164.67 946.5,164.5C 941.961,173.245 937.795,182.245 934,191.5C 932.907,201.932 931.407,212.099 929.5,222C 929.833,226.5 930.167,231 930.5,235.5C 931.086,235.709 931.586,236.043 932,236.5C 932.213,242.639 933.213,248.639 935,254.5C 937.379,259.321 939.545,264.321 941.5,269.5C 943.61,273.348 946.444,276.681 950,279.5C 950.49,280.793 950.657,282.127 950.5,283.5C 953.986,286.782 957.986,289.616 962.5,292C 964.037,293.11 964.703,294.61 964.5,296.5C 969.435,296.316 973.768,297.816 977.5,301C 1010.98,311.619 1042.65,307.953 1072.5,290C 1074.13,289.506 1075.8,289.34 1077.5,289.5C 1077.5,308.833 1077.5,328.167 1077.5,347.5C 1074.2,348.275 1071.2,349.775 1068.5,352C 1062.75,352.554 1057.41,354.054 1052.5,356.5C 1047.84,357.066 1043.17,357.566 1038.5,358C 1037.83,358.667 1037.17,359.333 1036.5,360C 1024.35,360.436 1012.35,361.269 1000.5,362.5C 989.741,362.43 979.074,361.763 968.5,360.5C 968.5,359.5 968.5,358.5 968.5,357.5C 963.113,357.595 957.78,357.095 952.5,356C 952.043,355.586 951.709,355.086 951.5,354.5C 944.74,353.983 938.74,351.65 933.5,347.5C 931.547,346.844 929.547,346.511 927.5,346.5C 927.5,345.5 927.5,344.5 927.5,343.5C 925.738,343.643 924.071,343.309 922.5,342.5C 919.207,339.471 915.541,336.971 911.5,335C 903.337,327.336 895.67,319.169 888.5,310.5C 882.922,301.885 878.089,292.885 874,283.5C 873.172,279.534 872.672,275.534 872.5,271.5C 871.5,271.5 870.5,271.5 869.5,271.5C 868.442,264.557 867.442,257.557 866.5,250.5C 865.334,234.177 865.167,217.844 866,201.5C 867,197.5 868,193.5 869,189.5C 869.498,186.183 869.665,182.85 869.5,179.5C 870.5,179.5 871.5,179.5 872.5,179.5C 872.739,175.158 873.073,170.824 873.5,166.5C 874.5,166.5 875.5,166.5 876.5,166.5C 876.678,163.784 877.178,161.117 878,158.5C 887.234,139.534 899.734,123.034 915.5,109C 917.436,108.187 919.436,107.687 921.5,107.5C 921.281,106.325 921.614,105.325 922.5,104.5C 931.848,98.8739 941.181,93.3739 950.5,88C 957.841,87.1406 964.841,85.1406 971.5,82C 978.799,80.98 986.132,80.3134 993.5,80C 994.571,79.1482 995.571,78.3149 996.5,77.5 Z"/></g>
<g><path style="opacity:0.907" fill="#fefffe" d="M 518.5,82.5 C 546.841,82.1669 575.175,82.5002 603.5,83.5C 604.242,84.2868 605.075,84.9535 606,85.5C 610.805,101.663 616.471,117.33 623,132.5C 623.392,135.188 623.892,137.855 624.5,140.5C 627.942,146.973 630.775,153.639 633,160.5C 633.446,163.343 633.946,166.176 634.5,169C 638.911,178.549 642.577,188.549 645.5,199C 649.893,208.824 653.393,218.991 656,229.5C 659.269,235.26 661.935,241.26 664,247.5C 667.155,255.806 669.489,264.473 671,273.5C 671.667,272.833 672.333,272.167 673,271.5C 673.667,267.5 674.333,263.5 675,259.5C 675.414,259.043 675.914,258.709 676.5,258.5C 683.579,237.096 690.746,215.763 698,194.5C 700.204,190.59 702.204,186.59 704,182.5C 704.257,175.836 706.257,169.836 710,164.5C 710.667,161.167 711.333,157.833 712,154.5C 714.122,150.249 716.122,145.916 718,141.5C 724.364,122.766 730.698,104.1 737,85.5C 737.833,84.6667 738.667,83.8333 739.5,83C 767.498,82.5 795.498,82.3334 823.5,82.5C 823.5,173.833 823.5,265.167 823.5,356.5C 803.5,356.5 783.5,356.5 763.5,356.5C 763.667,290.499 763.5,224.499 763,158.5C 759.97,168.73 757.136,179.063 754.5,189.5C 753.5,189.5 752.5,189.5 751.5,189.5C 751.328,193.534 750.828,197.534 750,201.5C 747.956,207.303 745.456,212.97 742.5,218.5C 736.66,235.875 730.826,253.208 725,270.5C 724.014,273.644 722.514,276.477 720.5,279C 719.744,282.125 719.411,285.291 719.5,288.5C 718.5,288.5 717.5,288.5 716.5,288.5C 716.653,294.914 714.82,300.581 711,305.5C 710.281,309.145 709.781,312.812 709.5,316.5C 708.5,316.5 707.5,316.5 706.5,316.5C 706.728,323.25 704.894,329.25 701,334.5C 699.254,341.687 697.087,348.687 694.5,355.5C 677.179,356.5 659.846,356.833 642.5,356.5C 642.66,354.801 642.494,353.134 642,351.5C 639.378,343.958 636.378,336.624 633,329.5C 632.503,327.19 632.337,324.857 632.5,322.5C 631.5,322.5 630.5,322.5 629.5,322.5C 629.895,317.928 628.728,313.928 626,310.5C 618.081,285.35 609.081,260.684 599,236.5C 596.325,227.455 593.825,218.455 591.5,209.5C 590.5,209.5 589.5,209.5 588.5,209.5C 588.765,205.271 587.598,201.604 585,198.5C 584.118,195.211 583.452,191.877 583,188.5C 579.475,183.434 577.642,177.768 577.5,171.5C 576.5,171.5 575.5,171.5 574.5,171.5C 574.418,165.766 573.752,160.099 572.5,154.5C 572.167,156.333 571.833,158.167 571.5,160C 573.157,170.323 573.991,180.823 574,191.5C 574.667,245.833 574.667,300.167 574,354.5C 564.729,355.82 555.229,356.486 545.5,356.5C 535.925,356.494 526.425,356.16 517,355.5C 516.333,265.167 516.333,174.833 517,84.5C 517.717,83.9558 518.217,83.2891 518.5,82.5 Z"/></g>
<g><path style="opacity:0.906" fill="#fefffe" d="M 1229.5,82.5 C 1262.83,82.3333 1296.17,82.5 1329.5,83C 1340.54,83.9851 1351.54,85.3185 1362.5,87C 1368.04,88.8446 1373.71,90.5113 1379.5,92C 1383.62,94.6318 1387.96,96.9652 1392.5,99C 1396.92,103.648 1401.59,107.981 1406.5,112C 1411.7,119.249 1416.2,126.749 1420,134.5C 1421,139.453 1421.66,144.453 1422,149.5C 1422.91,150.328 1423.58,151.328 1424,152.5C 1424.67,164.167 1424.67,175.833 1424,187.5C 1421.8,192.546 1420.47,197.879 1420,203.5C 1415.96,211.233 1411.63,218.9 1407,226.5C 1402.47,231.027 1397.97,235.527 1393.5,240C 1392.21,240.49 1390.87,240.657 1389.5,240.5C 1389.5,241.5 1389.5,242.5 1389.5,243.5C 1382.17,247.585 1374.67,251.585 1367,255.5C 1362.28,256.527 1357.78,258.027 1353.5,260C 1332.4,263.173 1311.07,264.34 1289.5,263.5C 1289.5,294.5 1289.5,325.5 1289.5,356.5C 1268.5,356.5 1247.5,356.5 1226.5,356.5C 1226.17,265.831 1226.5,175.164 1227.5,84.5C 1228.52,84.1445 1229.19,83.4778 1229.5,82.5 Z M 1289.5,132.5 C 1304.35,131.725 1319.02,132.725 1333.5,135.5C 1347.6,140.266 1355.94,149.932 1358.5,164.5C 1359.66,169.802 1359.83,175.136 1359,180.5C 1357.77,183.3 1357.1,186.3 1357,189.5C 1354.72,191.718 1353.22,194.385 1352.5,197.5C 1350.13,200.206 1347.46,202.539 1344.5,204.5C 1343.61,205.325 1343.28,206.325 1343.5,207.5C 1337.91,209.593 1332.24,211.426 1326.5,213C 1314.17,213.5 1301.84,213.667 1289.5,213.5C 1289.5,186.5 1289.5,159.5 1289.5,132.5 Z"/></g>
<g><path style="opacity:0.902" fill="#fefffe" d="M 2400.5,102.5 C 2403.5,102.5 2406.5,102.5 2409.5,102.5C 2409.5,121.5 2409.5,140.5 2409.5,159.5C 2424.17,159.333 2438.84,159.5 2453.5,160C 2454.16,167.591 2454.49,175.257 2454.5,183C 2454.49,190.743 2454.16,198.409 2453.5,206C 2438.84,206.5 2424.17,206.667 2409.5,206.5C 2409.33,234.835 2409.5,263.169 2410,291.5C 2411.79,294.748 2412.95,298.248 2413.5,302C 2415.6,305.488 2418.27,308.488 2421.5,311C 2423.47,311.495 2425.47,311.662 2427.5,311.5C 2427.5,312.5 2427.5,313.5 2427.5,314.5C 2433.8,312.35 2440.47,311.017 2447.5,310.5C 2447.5,309.5 2447.5,308.5 2447.5,307.5C 2449.83,307.5 2452.17,307.5 2454.5,307.5C 2454.83,322.848 2454.5,338.181 2453.5,353.5C 2452.53,355.636 2450.86,356.803 2448.5,357C 2445.85,357.497 2443.19,357.664 2440.5,357.5C 2440.5,358.5 2440.5,359.5 2440.5,360.5C 2431.46,360.864 2422.46,361.531 2413.5,362.5C 2405.81,361.887 2398.15,361.221 2390.5,360.5C 2390.5,359.5 2390.5,358.5 2390.5,357.5C 2382.79,358.153 2376.29,355.82 2371,350.5C 2370.52,349.552 2370.35,348.552 2370.5,347.5C 2368.22,347.392 2366.22,346.559 2364.5,345C 2363.36,343.027 2362.03,341.193 2360.5,339.5C 2356.27,332.974 2353.1,325.974 2351,318.5C 2349.57,281.19 2349.07,243.857 2349.5,206.5C 2339.17,206.5 2328.83,206.5 2318.5,206.5C 2318.5,190.833 2318.5,175.167 2318.5,159.5C 2328.83,159.5 2339.17,159.5 2349.5,159.5C 2349.5,145.5 2349.5,131.5 2349.5,117.5C 2351.86,117.663 2354.19,117.497 2356.5,117C 2356.96,116.586 2357.29,116.086 2357.5,115.5C 2368.68,112.038 2380.01,109.205 2391.5,107C 2394.33,105.093 2397.33,103.593 2400.5,102.5 Z"/></g>
<g><path style="opacity:0.9" fill="#fefffe" d="M 1680.5,155.5 C 1693.84,155.333 1707.17,155.5 1720.5,156C 1744.47,159.435 1764.97,169.935 1782,187.5C 1783.12,189.42 1783.96,191.42 1784.5,193.5C 1785.68,193.281 1786.68,193.614 1787.5,194.5C 1789.82,198.47 1792.15,202.47 1794.5,206.5C 1796.93,211.237 1798.6,216.237 1799.5,221.5C 1800.09,221.709 1800.59,222.043 1801,222.5C 1801.88,232.495 1802.71,242.495 1803.5,252.5C 1806.27,255.029 1806.1,257.362 1803,259.5C 1802.76,269.532 1802.09,279.532 1801,289.5C 1800.59,289.957 1800.09,290.291 1799.5,290.5C 1798.45,294.112 1797.62,297.779 1797,301.5C 1793.7,307.369 1790.7,313.369 1788,319.5C 1782.38,326.617 1776.22,333.284 1769.5,339.5C 1767.36,341.905 1764.69,343.238 1761.5,343.5C 1761.5,344.5 1761.5,345.5 1761.5,346.5C 1757.56,347.568 1753.89,349.402 1750.5,352C 1746.66,352.349 1743.33,353.682 1740.5,356C 1735.83,356.797 1731.16,357.63 1726.5,358.5C 1726.29,359.086 1725.96,359.586 1725.5,360C 1719.99,360.05 1714.66,360.717 1709.5,362C 1701.5,362.667 1693.5,362.667 1685.5,362C 1680.61,360.776 1675.61,360.109 1670.5,360C 1670.04,359.586 1669.71,359.086 1669.5,358.5C 1665.7,357.652 1661.87,356.985 1658,356.5C 1654.32,354.012 1650.15,352.512 1645.5,352C 1640.12,348.647 1634.78,345.314 1629.5,342C 1615.78,330.409 1605.62,316.242 1599,299.5C 1598.2,294.825 1597.37,290.159 1596.5,285.5C 1595.91,285.291 1595.41,284.957 1595,284.5C 1593,267.833 1593,251.167 1595,234.5C 1597.25,229.482 1598.58,224.148 1599,218.5C 1602.9,210.357 1607.07,202.357 1611.5,194.5C 1612.5,194.5 1613.5,194.5 1614.5,194.5C 1614.34,193.127 1614.51,191.793 1615,190.5C 1618.17,186.667 1621.67,183.167 1625.5,180C 1626.45,179.517 1627.45,179.351 1628.5,179.5C 1628.56,177.408 1629.56,175.908 1631.5,175C 1637.27,170.883 1643.27,167.216 1649.5,164C 1659.64,160.53 1669.98,157.697 1680.5,155.5 Z M 1685.5,204.5 C 1694.17,204.334 1702.84,204.5 1711.5,205C 1716.11,206.813 1720.77,208.313 1725.5,209.5C 1725.5,210.5 1725.5,211.5 1725.5,212.5C 1727.91,212.921 1729.74,214.254 1731,216.5C 1734.91,222.597 1738.08,228.93 1740.5,235.5C 1745.15,258.126 1742.31,279.459 1732,299.5C 1729.14,301.694 1726.64,304.194 1724.5,307C 1723.21,307.49 1721.87,307.657 1720.5,307.5C 1720.5,308.5 1720.5,309.5 1720.5,310.5C 1713.16,310.922 1706.16,312.255 1699.5,314.5C 1693.57,312.48 1687.4,311.147 1681,310.5C 1678.4,307.952 1675.23,306.619 1671.5,306.5C 1671.65,305.448 1671.48,304.448 1671,303.5C 1667.36,300.778 1664.53,297.445 1662.5,293.5C 1652.03,267.663 1653.36,242.663 1666.5,218.5C 1668.6,217.219 1670.27,215.552 1671.5,213.5C 1672.32,212.614 1673.32,212.281 1674.5,212.5C 1674.5,211.5 1674.5,210.5 1674.5,209.5C 1678.89,209.035 1682.56,207.368 1685.5,204.5 Z"/></g>
<g><path style="opacity:0.889" fill="#fefffe" d="M 2014.5,155.5 C 2026.5,155.333 2038.5,155.5 2050.5,156C 2059.72,157.722 2068.72,160.222 2077.5,163.5C 2077.5,164.5 2077.5,165.5 2077.5,166.5C 2083.5,167.496 2088.17,170.496 2091.5,175.5C 2092.32,176.386 2093.32,176.719 2094.5,176.5C 2094.5,177.5 2094.5,178.5 2094.5,179.5C 2095.5,179.5 2096.5,179.5 2097.5,179.5C 2100.76,184.114 2104.09,188.78 2107.5,193.5C 2113.85,204.39 2117.69,216.057 2119,228.5C 2120.04,229.623 2120.71,230.956 2121,232.5C 2121.82,247.075 2121.66,261.575 2120.5,276C 2078.83,276.5 2037.17,276.667 1995.5,276.5C 1995.34,278.857 1995.5,281.19 1996,283.5C 1996.94,288.129 1998.6,292.462 2001,296.5C 2002,297.167 2003,297.833 2004,298.5C 2004.52,301.508 2006.02,303.841 2008.5,305.5C 2010.3,306.768 2012.3,307.435 2014.5,307.5C 2014.5,308.5 2014.5,309.5 2014.5,310.5C 2019.62,310.713 2024.28,312.046 2028.5,314.5C 2041.5,315.811 2054.5,315.811 2067.5,314.5C 2073.04,311.788 2079.04,310.455 2085.5,310.5C 2085.5,309.5 2085.5,308.5 2085.5,307.5C 2087.4,307.567 2089.23,307.233 2091,306.5C 2094.66,302.702 2099.16,301.035 2104.5,301.5C 2104.5,316.833 2104.5,332.167 2104.5,347.5C 2100.92,348.38 2097.59,349.88 2094.5,352C 2090.91,353.108 2087.25,353.608 2083.5,353.5C 2083.5,354.5 2083.5,355.5 2083.5,356.5C 2072.1,359.367 2060.43,361.2 2048.5,362C 2039.17,362.667 2029.83,362.667 2020.5,362C 2016.01,360.726 2011.35,360.059 2006.5,360C 2006.04,359.586 2005.71,359.086 2005.5,358.5C 2000.84,357.63 1996.17,356.797 1991.5,356C 1984.96,353.148 1978.63,349.815 1972.5,346C 1970.84,344.171 1968.84,342.837 1966.5,342C 1963.29,337.728 1959.62,333.894 1955.5,330.5C 1954.75,329.264 1954.42,327.93 1954.5,326.5C 1953.5,326.5 1952.5,326.5 1951.5,326.5C 1947.34,317.905 1943.17,309.238 1939,300.5C 1933.02,274.738 1933.02,249.071 1939,223.5C 1942.74,213.858 1947.07,204.525 1952,195.5C 1954.56,194.781 1955.72,193.114 1955.5,190.5C 1956.5,190.5 1957.5,190.5 1958.5,190.5C 1958.49,188.692 1958.99,187.025 1960,185.5C 1962.5,184.333 1964.33,182.5 1965.5,180C 1966.45,179.517 1967.45,179.351 1968.5,179.5C 1968.5,178.5 1968.5,177.5 1968.5,176.5C 1971.89,176.129 1974.56,174.463 1976.5,171.5C 1983.21,166.915 1990.21,163.082 1997.5,160C 2001.82,159.24 2006.15,158.573 2010.5,158C 2011.86,157.066 2013.19,156.232 2014.5,155.5 Z M 2028.5,198.5 C 2033.82,198.98 2039.16,199.313 2044.5,199.5C 2044.5,200.5 2044.5,201.5 2044.5,202.5C 2047.79,203.131 2050.79,204.464 2053.5,206.5C 2060.28,214.961 2063.95,224.628 2064.5,235.5C 2041.5,235.5 2018.5,235.5 1995.5,235.5C 1996.76,228.836 1998.76,222.503 2001.5,216.5C 2002.68,216.719 2003.68,216.386 2004.5,215.5C 2010.4,206.456 2018.4,200.789 2028.5,198.5 Z"/></g>
<g><path style="opacity:0.89" fill="#fefffe" d="M 2230.5,155.5 C 2244.84,155.333 2259.17,155.5 2273.5,156C 2279.65,158.129 2285.98,159.463 2292.5,160C 2294.36,161.981 2296.69,162.981 2299.5,163C 2300.49,180.757 2300.83,198.59 2300.5,216.5C 2294.73,216.201 2289.9,213.868 2286,209.5C 2271.7,204.66 2256.87,203.16 2241.5,205C 2237.13,207.348 2232.46,208.848 2227.5,209.5C 2227.5,210.5 2227.5,211.5 2227.5,212.5C 2224.13,213.356 2221.13,215.022 2218.5,217.5C 2217.72,219.356 2216.39,220.689 2214.5,221.5C 2213.69,223.071 2213.36,224.738 2213.5,226.5C 2212.5,226.5 2211.5,226.5 2210.5,226.5C 2203.26,243.491 2201.59,261.158 2205.5,279.5C 2207.27,285.704 2210.1,291.371 2214,296.5C 2217.72,299.708 2221.55,302.875 2225.5,306C 2227.35,307.128 2229.35,307.628 2231.5,307.5C 2231.5,308.5 2231.5,309.5 2231.5,310.5C 2235.01,310.668 2238.51,311.001 2242,311.5C 2244.28,311.563 2246.11,312.397 2247.5,314C 2252.86,314.829 2258.2,314.663 2263.5,313.5C 2263.71,312.914 2264.04,312.414 2264.5,312C 2269.6,311.712 2274.6,310.878 2279.5,309.5C 2285.42,306.903 2291.09,303.736 2296.5,300C 2297.79,299.51 2299.13,299.343 2300.5,299.5C 2300.67,316.17 2300.5,332.837 2300,349.5C 2296.35,352.032 2292.52,354.199 2288.5,356C 2283.86,356.83 2279.19,357.497 2274.5,358C 2273.83,358.667 2273.17,359.333 2272.5,360C 2266.42,360.138 2260.42,360.804 2254.5,362C 2246.17,362.667 2237.83,362.667 2229.5,362C 2220.04,359.648 2210.38,357.648 2200.5,356C 2194.67,352.703 2188.67,349.536 2182.5,346.5C 2181.61,345.675 2181.28,344.675 2181.5,343.5C 2180.13,343.657 2178.79,343.49 2177.5,343C 2171.23,336.973 2165.06,330.806 2159,324.5C 2147.04,305.839 2140.87,285.339 2140.5,263C 2141.07,242.106 2145.74,222.273 2154.5,203.5C 2155.5,203.5 2156.5,203.5 2157.5,203.5C 2158.52,199.199 2160.36,195.199 2163,191.5C 2166.85,186.818 2171.35,182.818 2176.5,179.5C 2177.39,178.675 2177.72,177.675 2177.5,176.5C 2184.89,172.632 2192.22,168.465 2199.5,164C 2209.66,160.529 2219.99,157.696 2230.5,155.5 Z"/></g>
<g><path style="opacity:0.873" fill="#fefffe" d="M 1557.5,156.5 C 1565.69,156.244 1573.69,156.911 1581.5,158.5C 1582.82,177.827 1582.82,197.16 1581.5,216.5C 1576.64,214.632 1571.64,213.298 1566.5,212.5C 1566.5,211.5 1566.5,210.5 1566.5,209.5C 1559.17,209.5 1551.83,209.5 1544.5,209.5C 1544.5,210.5 1544.5,211.5 1544.5,212.5C 1533.16,215.325 1525.33,222.325 1521,233.5C 1520.46,237.15 1519.3,240.483 1517.5,243.5C 1516.52,281.153 1516.19,318.819 1516.5,356.5C 1496.16,356.667 1475.83,356.5 1455.5,356C 1455,355.5 1454.5,355 1454,354.5C 1453.33,290.167 1453.33,225.833 1454,161.5C 1454.5,161 1455,160.5 1455.5,160C 1475.5,159.333 1495.5,159.333 1515.5,160C 1516.32,168.422 1516.82,176.922 1517,185.5C 1522.54,173.991 1531.04,165.491 1542.5,160C 1547.1,158.939 1551.77,158.273 1556.5,158C 1557.06,157.617 1557.39,157.117 1557.5,156.5 Z"/></g>
<g><path style="opacity:0.898" fill="#fefffe" d="M 1839.5,159.5 C 1859.41,159.174 1879.24,159.507 1899,160.5C 1899.67,230.833 1899.67,301.167 1899,371.5C 1897.99,378.551 1896.66,385.551 1895,392.5C 1892.61,399.325 1890.11,405.992 1887.5,412.5C 1886.5,412.5 1885.5,412.5 1884.5,412.5C 1884.31,414.564 1883.81,416.564 1883,418.5C 1880.21,421.146 1877.38,423.479 1874.5,425.5C 1874.83,428.5 1873.5,429.833 1870.5,429.5C 1869.97,432.779 1867.97,434.113 1864.5,433.5C 1864.44,435.592 1863.44,437.092 1861.5,438C 1857.38,438.645 1853.71,440.145 1850.5,442.5C 1846.46,442.949 1842.46,443.615 1838.5,444.5C 1838.29,445.086 1837.96,445.586 1837.5,446C 1825.17,446.5 1812.84,446.667 1800.5,446.5C 1800.5,445.5 1800.5,444.5 1800.5,443.5C 1796.14,443.414 1791.81,443.08 1787.5,442.5C 1787.5,425.833 1787.5,409.167 1787.5,392.5C 1791.46,392.148 1794.79,393.315 1797.5,396C 1805.81,397.721 1814.14,397.888 1822.5,396.5C 1826.11,394.528 1829.11,391.861 1831.5,388.5C 1834.54,382.089 1836.71,375.422 1838,368.5C 1838.17,298.763 1838.67,229.096 1839.5,159.5 Z"/></g>
<g><path style="opacity:0.846" fill="#fefffe" d="M 700.5,482.5 C 708.5,482.5 716.5,482.5 724.5,482.5C 724.5,490.167 724.5,497.833 724.5,505.5C 721.179,505.536 718.012,504.869 715,503.5C 711.225,504.265 708.225,506.265 706,509.5C 705.501,513.821 705.334,518.154 705.5,522.5C 711.5,522.5 717.5,522.5 723.5,522.5C 723.5,529.5 723.5,536.5 723.5,543.5C 717.5,543.5 711.5,543.5 705.5,543.5C 705.5,563.833 705.5,584.167 705.5,604.5C 696.5,604.5 687.5,604.5 678.5,604.5C 678.5,584.167 678.5,563.833 678.5,543.5C 673.833,543.5 669.167,543.5 664.5,543.5C 664.5,536.5 664.5,529.5 664.5,522.5C 669.167,522.5 673.833,522.5 678.5,522.5C 677.256,511.095 679.589,500.595 685.5,491C 690.112,487.11 695.112,484.277 700.5,482.5 Z"/></g>
<g><path style="opacity:0.853" fill="#fefffe" d="M 266.5,484.5 C 275.173,484.334 283.84,484.5 292.5,485C 293.325,499.425 293.825,513.925 294,528.5C 296.753,525.071 300.253,522.904 304.5,522C 312.833,521.333 321.167,521.333 329.5,522C 339.593,526.768 346.093,534.601 349,545.5C 351.666,559.526 350.666,573.192 346,586.5C 336.056,604.72 320.889,610.886 300.5,605C 298.254,603.961 296.087,602.794 294,601.5C 293.626,602.416 293.126,603.25 292.5,604C 283.84,604.5 275.173,604.666 266.5,604.5C 266.5,564.5 266.5,524.5 266.5,484.5 Z M 303.5,542.5 C 308.654,542.294 313.654,542.961 318.5,544.5C 318.517,547.523 319.517,550.19 321.5,552.5C 322.968,560.633 322.468,568.633 320,576.5C 315.882,583.658 309.716,586.158 301.5,584C 299.779,583.261 298.113,582.427 296.5,581.5C 290.494,571.102 289.994,560.435 295,549.5C 297.439,546.549 300.272,544.216 303.5,542.5 Z"/></g>
<g><path style="opacity:0.837" fill="#fefffe" d="M 586.5,484.5 C 595.085,484.183 603.585,484.517 612,485.5C 612.5,525.165 612.667,564.832 612.5,604.5C 603.582,604.817 594.749,604.484 586,603.5C 585.173,563.762 585.34,524.096 586.5,484.5 Z"/></g>
<g><path style="opacity:0.757" fill="#fefffe" d="M 635.5,484.5 C 643.392,483.015 650.059,485.015 655.5,490.5C 659.49,507.368 652.823,514.534 635.5,512C 633.535,510.435 631.369,509.268 629,508.5C 626.842,501.739 627.008,495.073 629.5,488.5C 631.911,487.639 633.911,486.306 635.5,484.5 Z"/></g>
<g><path style="opacity:0.756" fill="#fefffe" d="M 1570.5,484.5 C 1589.04,482.893 1595.04,490.893 1588.5,508.5C 1579.71,514.108 1571.21,513.775 1563,507.5C 1561.49,502.254 1561.16,496.921 1562,491.5C 1562.47,490.069 1563.3,488.903 1564.5,488C 1566.71,487.023 1568.71,485.857 1570.5,484.5 Z"/></g>
<g><path style="opacity:0.834" fill="#fefffe" d="M 1751.5,489.5 C 1761.84,489.334 1772.17,489.5 1782.5,490C 1786.56,490.34 1790.56,491.007 1794.5,492C 1795.48,500.749 1795.82,509.582 1795.5,518.5C 1790.25,518.138 1785.58,516.305 1781.5,513C 1773.09,510.873 1764.76,511.039 1756.5,513.5C 1748.61,518.746 1748.61,524.079 1756.5,529.5C 1765.81,534.323 1775.14,538.823 1784.5,543C 1788.3,545.797 1791.8,548.964 1795,552.5C 1797.82,558.935 1799.98,565.602 1801.5,572.5C 1800.1,579.762 1797.94,586.762 1795,593.5C 1790.66,598.171 1785.49,601.671 1779.5,604C 1771.22,605.051 1763.05,606.218 1755,607.5C 1748.19,606.44 1741.36,605.606 1734.5,605C 1730.28,604.314 1726.28,603.147 1722.5,601.5C 1722.5,592.167 1722.5,582.833 1722.5,573.5C 1728.8,576.067 1734.97,579.067 1741,582.5C 1749.58,585.184 1758.08,585.017 1766.5,582C 1771.82,576.724 1771.82,571.391 1766.5,566C 1755.06,561.069 1744.06,555.403 1733.5,549C 1722.86,538.707 1719.36,526.207 1723,511.5C 1728.68,499.124 1738.18,491.79 1751.5,489.5 Z"/></g>
<g><path style="opacity:0.851" fill="#fefffe" d="M 91.5,490.5 C 100.833,490.5 110.167,490.5 119.5,490.5C 119.026,517.564 119.526,544.564 121,571.5C 123.833,575.667 127.333,579.167 131.5,582C 139.814,584.083 146.98,582.25 153,576.5C 154.549,573.688 155.382,570.688 155.5,567.5C 156.5,567.5 157.5,567.5 158.5,567.5C 158.5,541.833 158.5,516.167 158.5,490.5C 167.5,490.5 176.5,490.5 185.5,490.5C 185.667,517.502 185.5,544.502 185,571.5C 184.586,571.957 184.086,572.291 183.5,572.5C 181.741,584.547 176.074,594.047 166.5,601C 151.324,607.376 135.658,608.71 119.5,605C 101.085,598.541 91.9183,585.375 92,565.5C 91.5,540.502 91.3334,515.502 91.5,490.5 Z"/></g>
<g><path style="opacity:0.804" fill="#fefffe" d="M 898.5,490.5 C 906.833,490.5 915.167,490.5 923.5,490.5C 923.5,492.833 923.5,495.167 923.5,497.5C 922.5,497.5 921.5,497.5 920.5,497.5C 919.983,501.222 919.15,504.888 918,508.5C 900.994,545.826 885.16,583.492 870.5,621.5C 862.222,622.47 853.889,622.803 845.5,622.5C 845.575,619.794 845.908,617.127 846.5,614.5C 847.5,614.5 848.5,614.5 849.5,614.5C 849.807,608.585 851.641,603.251 855,598.5C 857.553,590.368 860.719,582.534 864.5,575C 867.699,567.362 870.365,559.529 872.5,551.5C 873.5,551.5 874.5,551.5 875.5,551.5C 875.857,547.737 876.69,544.07 878,540.5C 881.3,533.316 884.3,525.983 887,518.5C 887.833,517.5 888.667,516.5 889.5,515.5C 891.72,506.759 894.72,498.425 898.5,490.5 Z"/></g>
<g><path style="opacity:0.827" fill="#fefffe" d="M 241.5,521.5 C 247.093,521.193 252.593,521.527 258,522.5C 258.667,530.167 258.667,537.833 258,545.5C 256.938,546.097 255.772,546.43 254.5,546.5C 242.509,542.328 234.843,546.328 231.5,558.5C 230.818,573.533 230.151,588.533 229.5,603.5C 221.167,604.833 212.833,604.833 204.5,603.5C 203.343,577.209 203.176,550.876 204,524.5C 208.077,523.202 212.411,522.536 217,522.5C 221.167,522.833 225.333,523.167 229.5,523.5C 230.213,525.776 230.713,528.109 231,530.5C 233.27,525.847 236.77,522.847 241.5,521.5 Z"/></g>
<g><path style="opacity:0.833" fill="#fefffe" d="M 381.5,521.5 C 392.555,521.121 403.555,521.621 414.5,523C 419.598,525.435 423.765,528.935 427,533.5C 428.846,536.569 429.846,539.902 430,543.5C 430.5,563.831 430.667,584.164 430.5,604.5C 422.5,604.5 414.5,604.5 406.5,604.5C 406.799,602.396 406.466,600.396 405.5,598.5C 403.321,600.847 400.821,602.847 398,604.5C 385.081,609.284 373.247,607.618 362.5,599.5C 361.757,598.092 360.923,596.759 360,595.5C 359.871,592.997 358.871,590.997 357,589.5C 356.333,583.833 356.333,578.167 357,572.5C 359.236,569.957 360.736,566.957 361.5,563.5C 363.976,562.191 365.976,560.358 367.5,558C 377.914,553.316 388.914,550.983 400.5,551C 402.285,549.837 404.285,549.17 406.5,549C 400.983,540.623 393.317,538.123 383.5,541.5C 377.223,543.474 371.223,545.808 365.5,548.5C 365.201,541.109 365.535,533.776 366.5,526.5C 371.22,523.743 376.22,522.076 381.5,521.5 Z M 399.5,568.5 C 401.833,568.5 404.167,568.5 406.5,568.5C 405.556,573.408 403.723,578.075 401,582.5C 399.416,583.861 397.582,584.528 395.5,584.5C 395.5,585.5 395.5,586.5 395.5,587.5C 393.167,587.5 390.833,587.5 388.5,587.5C 388.5,586.5 388.5,585.5 388.5,584.5C 382.847,584.056 381.014,581.056 383,575.5C 387.402,570.395 392.902,568.062 399.5,568.5 Z"/></g>
<g><path style="opacity:0.849" fill="#fefffe" d="M 485.5,521.5 C 493.174,521.334 500.841,521.5 508.5,522C 510.608,522.36 512.608,523.027 514.5,524C 516,526.833 518.167,529 521,530.5C 522.247,535.371 523.914,540.038 526,544.5C 526.667,564.167 526.667,583.833 526,603.5C 517.251,604.484 508.418,604.817 499.5,604.5C 499.5,586.5 499.5,568.5 499.5,550.5C 498.5,550.5 497.5,550.5 496.5,550.5C 496.653,544.428 493.653,541.761 487.5,542.5C 484.488,543.172 481.488,543.839 478.5,544.5C 477.612,547.243 476.445,549.91 475,552.5C 474.5,569.83 474.333,587.163 474.5,604.5C 465.5,604.5 456.5,604.5 447.5,604.5C 447.5,577.167 447.5,549.833 447.5,522.5C 456.5,522.5 465.5,522.5 474.5,522.5C 474.338,524.527 474.505,526.527 475,528.5C 478.154,525.488 481.654,523.155 485.5,521.5 Z"/></g>
<g><path style="opacity:0.818" fill="#fefffe" d="M 754.5,521.5 C 763.506,521.334 772.506,521.5 781.5,522C 786.091,522.962 790.091,524.962 793.5,528C 798.311,533.443 801.811,539.609 804,546.5C 805.081,555.135 805.581,563.801 805.5,572.5C 788.5,572.5 771.5,572.5 754.5,572.5C 754.635,576.438 756.135,579.772 759,582.5C 762.55,583.236 765.717,584.736 768.5,587C 772.167,587.667 775.833,587.667 779.5,587C 784.062,584.995 788.729,582.995 793.5,581C 794.833,580.333 796.167,580.333 797.5,581C 798.643,587.418 798.81,593.918 798,600.5C 796.745,601.211 795.579,602.044 794.5,603C 785.804,604.83 777.137,606.33 768.5,607.5C 761.926,606.34 755.259,605.174 748.5,604C 737.112,599.192 730.279,590.692 728,578.5C 727.125,567.783 727.459,557.116 729,546.5C 733.686,534.057 742.186,525.724 754.5,521.5 Z M 763.5,540.5 C 769.275,539.311 773.942,540.977 777.5,545.5C 778.374,547.747 778.708,550.08 778.5,552.5C 770.472,552.831 762.472,552.498 754.5,551.5C 756.346,546.763 759.346,543.096 763.5,540.5 Z"/></g>
<g><path style="opacity:0.818" fill="#fefffe" d="M 995.5,521.5 C 1027.96,515.661 1044.96,528.994 1046.5,561.5C 1046.33,564.833 1046.17,568.167 1046,571.5C 1028.9,572.16 1011.73,572.827 994.5,573.5C 996.356,576.409 998.023,579.409 999.5,582.5C 1002.02,583.785 1004.69,584.452 1007.5,584.5C 1007.5,585.5 1007.5,586.5 1007.5,587.5C 1011.88,587.826 1016.22,587.492 1020.5,586.5C 1020.71,585.914 1021.04,585.414 1021.5,585C 1027.39,583.945 1033.06,582.445 1038.5,580.5C 1038.67,587.508 1038.5,594.508 1038,601.5C 1021.16,608.71 1003.99,609.21 986.5,603C 976.73,596.846 970.73,588.013 968.5,576.5C 966.662,564.877 967.495,553.544 971,542.5C 976.355,531.961 984.522,524.961 995.5,521.5 Z M 1003.5,540.5 C 1012.54,539.258 1018.2,542.925 1020.5,551.5C 1012.19,552.665 1003.85,552.832 995.5,552C 996.399,549.808 997.399,547.642 998.5,545.5C 1000.57,544.097 1002.24,542.43 1003.5,540.5 Z"/></g>
<g><path style="opacity:0.817" fill="#fefffe" d="M 1083.5,521.5 C 1095.55,521.109 1107.55,521.609 1119.5,523C 1120.48,531.415 1120.82,539.915 1120.5,548.5C 1111.02,542.415 1100.85,541.082 1090,544.5C 1079.73,552.25 1076.89,562.25 1081.5,574.5C 1083.73,578.09 1086.73,580.923 1090.5,583C 1095.75,584.506 1101.08,584.839 1106.5,584C 1110.96,581.97 1115.62,580.804 1120.5,580.5C 1120.83,587.863 1120.5,595.197 1119.5,602.5C 1113.63,604.585 1107.63,606.085 1101.5,607C 1097.17,607.667 1092.83,607.667 1088.5,607C 1069.8,604.618 1057.96,594.451 1053,576.5C 1052.15,567.114 1052.48,557.781 1054,548.5C 1056.33,545.178 1058.16,541.511 1059.5,537.5C 1063.53,532.646 1068.2,528.48 1073.5,525C 1076.85,523.514 1080.18,522.347 1083.5,521.5 Z"/></g>
<g><path style="opacity:0.834" fill="#fefffe" d="M 1157.5,521.5 C 1169.22,521.113 1180.89,521.613 1192.5,523C 1200.85,527.167 1207.52,533.167 1212.5,541C 1213.92,548.444 1215.58,555.777 1217.5,563C 1215.47,569.621 1213.97,576.454 1213,583.5C 1210.98,586.848 1208.98,590.181 1207,593.5C 1197.55,603.221 1185.88,607.888 1172,607.5C 1143.33,606.66 1128.49,591.994 1127.5,563.5C 1127.38,541.989 1137.38,527.989 1157.5,521.5 Z M 1167.5,542.5 C 1181.22,540.764 1188.05,546.764 1188,560.5C 1191.33,561.833 1191.33,563.167 1188,564.5C 1187.73,581.755 1179.23,587.922 1162.5,583C 1159.87,580.21 1157.87,577.043 1156.5,573.5C 1155.34,567.193 1155.17,560.859 1156,554.5C 1158.3,548.815 1162.13,544.815 1167.5,542.5 Z"/></g>
<g><path style="opacity:0.847" fill="#fefffe" d="M 1267.5,521.5 C 1276.58,521.086 1285.58,521.586 1294.5,523C 1296.76,524.715 1298.93,526.548 1301,528.5C 1301.41,531.42 1302.74,533.754 1305,535.5C 1306.09,540.437 1306.75,545.437 1307,550.5C 1307.5,568.497 1307.67,586.497 1307.5,604.5C 1298.5,604.5 1289.5,604.5 1280.5,604.5C 1280.67,588.163 1280.5,571.83 1280,555.5C 1278.84,543.992 1272.67,540.158 1261.5,544C 1260.37,545.753 1259.37,547.587 1258.5,549.5C 1257.68,550.386 1256.68,550.719 1255.5,550.5C 1254.6,568.482 1254.27,586.482 1254.5,604.5C 1245.83,604.5 1237.17,604.5 1228.5,604.5C 1228.5,577.167 1228.5,549.833 1228.5,522.5C 1237.17,522.5 1245.83,522.5 1254.5,522.5C 1254.34,524.857 1254.5,527.19 1255,529.5C 1258.83,526.141 1263,523.475 1267.5,521.5 Z"/></g>
<g><path style="opacity:0.841" fill="#fefffe" d="M 1347.5,521.5 C 1357.84,521.334 1368.17,521.5 1378.5,522C 1394.41,527.243 1403.91,538.076 1407,554.5C 1409.96,587.535 1394.96,605.201 1362,607.5C 1355.18,606.226 1348.35,605.059 1341.5,604C 1336.39,601.197 1331.72,597.697 1327.5,593.5C 1325.52,591.19 1324.52,588.523 1324.5,585.5C 1323.32,585.719 1322.32,585.386 1321.5,584.5C 1318.83,570.168 1318.83,555.835 1321.5,541.5C 1322.5,541.5 1323.5,541.5 1324.5,541.5C 1324.49,539.692 1324.99,538.025 1326,536.5C 1331.77,529.375 1338.94,524.375 1347.5,521.5 Z M 1358.5,542.5 C 1363.72,542.134 1368.72,542.968 1373.5,545C 1382.25,556.594 1382.59,568.427 1374.5,580.5C 1372.96,582.437 1370.96,583.604 1368.5,584C 1352.72,586.39 1345.39,579.556 1346.5,563.5C 1345.69,556.305 1347.69,550.139 1352.5,545C 1354.61,544.155 1356.61,543.322 1358.5,542.5 Z"/></g>
<g><path style="opacity:0.848" fill="#fefffe" d="M 1459.5,521.5 C 1466.84,521.334 1474.17,521.5 1481.5,522C 1486.42,523.979 1490.42,527.146 1493.5,531.5C 1496.72,528.621 1500.06,525.788 1503.5,523C 1512.77,521.447 1522.1,521.114 1531.5,522C 1536.56,523.728 1540.39,526.894 1543,531.5C 1543.83,534.793 1544.33,538.126 1544.5,541.5C 1545.5,541.5 1546.5,541.5 1547.5,541.5C 1547.5,562.5 1547.5,583.5 1547.5,604.5C 1538.5,604.5 1529.5,604.5 1520.5,604.5C 1520.83,586.488 1520.5,568.488 1519.5,550.5C 1517.54,548.709 1516.21,546.543 1515.5,544C 1511.06,541.851 1506.72,542.017 1502.5,544.5C 1500.99,547.162 1499.32,549.662 1497.5,552C 1496.53,569.476 1496.2,586.976 1496.5,604.5C 1487.5,604.5 1478.5,604.5 1469.5,604.5C 1469.67,586.497 1469.5,568.497 1469,550.5C 1465.56,542.378 1459.72,540.378 1451.5,544.5C 1449.9,547.456 1448.4,550.456 1447,553.5C 1446.5,570.497 1446.33,587.497 1446.5,604.5C 1437.5,604.5 1428.5,604.5 1419.5,604.5C 1419.5,577.167 1419.5,549.833 1419.5,522.5C 1428.5,522.5 1437.5,522.5 1446.5,522.5C 1446.34,525.187 1446.5,527.854 1447,530.5C 1448.87,527.299 1451.37,524.799 1454.5,523C 1456.38,522.802 1458.05,522.302 1459.5,521.5 Z"/></g>
<g><path style="opacity:0.821" fill="#fefffe" d="M 1633.5,521.5 C 1644.89,521.117 1656.22,521.617 1667.5,523C 1668.65,531.088 1668.81,539.254 1668,547.5C 1667.59,547.957 1667.09,548.291 1666.5,548.5C 1661.8,544.015 1656.13,542.015 1649.5,542.5C 1639.86,542.331 1633.36,546.665 1630,555.5C 1629.05,562.629 1629.55,569.629 1631.5,576.5C 1637.83,583.887 1645.83,586.387 1655.5,584C 1659.9,582.781 1664.24,581.614 1668.5,580.5C 1668.67,587.841 1668.5,595.174 1668,602.5C 1666.06,603.863 1663.89,604.697 1661.5,605C 1655.83,605.768 1650.16,606.601 1644.5,607.5C 1637.61,606.26 1630.61,605.093 1623.5,604C 1621.4,602.234 1619.07,600.901 1616.5,600C 1611.98,596.138 1608.14,591.638 1605,586.5C 1603.28,579.408 1601.78,572.241 1600.5,565C 1601.83,557.987 1603.17,550.987 1604.5,544C 1610.62,531.641 1620.29,524.141 1633.5,521.5 Z"/></g>
<g><path style="opacity:0.825" fill="#fefffe" d="M 1836.5,521.5 C 1845.51,521.334 1854.51,521.5 1863.5,522C 1875.79,526.282 1882.96,534.782 1885,547.5C 1885.5,555.827 1885.67,564.16 1885.5,572.5C 1869.17,572.5 1852.83,572.5 1836.5,572.5C 1836.59,576.182 1837.92,579.349 1840.5,582C 1843.69,583.357 1846.69,584.857 1849.5,586.5C 1853.78,587.492 1858.12,587.826 1862.5,587.5C 1862.5,586.5 1862.5,585.5 1862.5,584.5C 1868.4,583.975 1874.06,582.641 1879.5,580.5C 1879.83,587.532 1879.5,594.532 1878.5,601.5C 1859.56,609.952 1840.9,609.452 1822.5,600C 1820.65,597.982 1818.65,596.149 1816.5,594.5C 1815.42,590.672 1813.59,587.339 1811,584.5C 1810.08,577.958 1808.92,571.458 1807.5,565C 1807.97,547.279 1815.64,533.445 1830.5,523.5C 1832.66,522.95 1834.66,522.283 1836.5,521.5 Z M 1844.5,540.5 C 1853.92,539.364 1859.59,543.364 1861.5,552.5C 1853.17,552.5 1844.83,552.5 1836.5,552.5C 1837.43,549.87 1838.43,547.204 1839.5,544.5C 1841.86,543.846 1843.52,542.513 1844.5,540.5 Z"/></g>
<g><path style="opacity:0.833" fill="#fefffe" d="M 1935.5,521.5 C 1949.83,522.105 1964.16,522.438 1978.5,522.5C 1983.52,540.086 1988.35,557.753 1993,575.5C 1994.4,574.774 1995.23,573.607 1995.5,572C 2000.15,555.611 2004.48,539.111 2008.5,522.5C 2018.17,522.5 2027.83,522.5 2037.5,522.5C 2037.66,524.199 2037.49,525.866 2037,527.5C 2034.63,531.649 2032.63,535.982 2031,540.5C 2028.25,550.566 2024.75,560.233 2020.5,569.5C 2015.86,581.101 2011.53,592.768 2007.5,604.5C 1997.48,604.832 1987.48,604.499 1977.5,603.5C 1969.06,582.057 1961.39,560.39 1954.5,538.5C 1953.57,536.887 1952.74,535.221 1952,533.5C 1951.5,537.821 1951.33,542.154 1951.5,546.5C 1946.31,544.748 1940.98,544.248 1935.5,545C 1932.54,547.811 1929.54,550.311 1926.5,552.5C 1924.68,569.762 1924.01,587.096 1924.5,604.5C 1915.83,604.5 1907.17,604.5 1898.5,604.5C 1898.5,577.167 1898.5,549.833 1898.5,522.5C 1907.17,522.5 1915.83,522.5 1924.5,522.5C 1923.45,531.058 1925.12,531.725 1929.5,524.5C 1931.59,523.482 1933.59,522.482 1935.5,521.5 Z"/></g>
<g><path style="opacity:0.819" fill="#fefffe" d="M 2067.5,521.5 C 2076.51,521.334 2085.51,521.5 2094.5,522C 2097.74,522.826 2100.74,524.16 2103.5,526C 2109.66,530.811 2114,536.978 2116.5,544.5C 2117.42,553.807 2117.75,563.14 2117.5,572.5C 2100.83,572.5 2084.17,572.5 2067.5,572.5C 2067.85,575.879 2069.19,578.879 2071.5,581.5C 2074.52,583.315 2077.52,584.981 2080.5,586.5C 2084.83,587.833 2089.17,587.833 2093.5,586.5C 2093.71,585.914 2094.04,585.414 2094.5,585C 2100.39,583.945 2106.06,582.445 2111.5,580.5C 2111.5,587.5 2111.5,594.5 2111.5,601.5C 2109.22,601.608 2107.22,602.441 2105.5,604C 2099.68,604.675 2094.02,605.675 2088.5,607C 2083.83,607.667 2079.17,607.667 2074.5,607C 2061.47,605.951 2051.47,599.951 2044.5,589C 2041.49,581.322 2039.49,573.322 2038.5,565C 2039.56,557.01 2041.4,549.176 2044,541.5C 2049.49,531.756 2057.32,525.09 2067.5,521.5 Z M 2076.5,540.5 C 2085.62,539.706 2090.96,543.706 2092.5,552.5C 2084.17,552.5 2075.83,552.5 2067.5,552.5C 2068.82,549.976 2069.99,547.31 2071,544.5C 2073.17,543.512 2075,542.179 2076.5,540.5 Z"/></g>
<g><path style="opacity:0.831" fill="#fefffe" d="M 2166.5,521.5 C 2172.17,521.5 2177.83,521.5 2183.5,521.5C 2183.67,529.507 2183.5,537.507 2183,545.5C 2177.62,544.876 2172.12,544.876 2166.5,545.5C 2160.61,548.276 2157.44,552.943 2157,559.5C 2156.67,574.167 2156.33,588.833 2156,603.5C 2147.25,604.484 2138.42,604.817 2129.5,604.5C 2129.5,577.167 2129.5,549.833 2129.5,522.5C 2138.17,522.334 2146.84,522.5 2155.5,523C 2156.25,524.734 2156.75,526.567 2157,528.5C 2159.53,525.108 2162.7,522.775 2166.5,521.5 Z"/></g>
<g><path style="opacity:0.842" fill="#fefffe" d="M 628.5,522.5 C 637.5,522.5 646.5,522.5 655.5,522.5C 655.5,549.833 655.5,577.167 655.5,604.5C 646.5,604.5 637.5,604.5 628.5,604.5C 628.5,577.167 628.5,549.833 628.5,522.5 Z"/></g>
<g><path style="opacity:0.844" fill="#fefffe" d="M 1562.5,522.5 C 1571.5,522.5 1580.5,522.5 1589.5,522.5C 1589.5,549.833 1589.5,577.167 1589.5,604.5C 1580.5,604.5 1571.5,604.5 1562.5,604.5C 1562.5,577.167 1562.5,549.833 1562.5,522.5 Z"/></g>
</svg>
