<?xml version="1.0" encoding="UTF-8"?>
<!DOCTYPE svg PUBLIC "-//W3C//DTD SVG 1.1//EN" "http://www.w3.org/Graphics/SVG/1.1/DTD/svg11.dtd">
<svg xmlns="http://www.w3.org/2000/svg" version="1.1" width="1600px" height="1883px" style="shape-rendering:geometricPrecision; text-rendering:geometricPrecision; image-rendering:optimizeQuality; fill-rule:evenodd; clip-rule:evenodd" xmlns:xlink="http://www.w3.org/1999/xlink">
<g><path style="opacity:1" fill="#eb1c23" d="M 773.5,2.5 C 866.1,0.228386 956.1,14.3951 1043.5,45C 1099.23,67.3621 1152.23,94.6955 1202.5,127C 1219.17,140 1235.83,153 1252.5,166C 1268.5,180 1284.5,194 1300.5,208C 1327.79,238.288 1353.96,269.455 1379,301.5C 1500.59,483.149 1535.59,680.482 1484,893.5C 1467.3,952.895 1443.97,1009.56 1414,1063.5C 1403.67,1080.17 1393.33,1096.83 1383,1113.5C 1370,1130.17 1357,1146.83 1344,1163.5C 1330,1179.5 1316,1195.5 1302,1211.5C 1271.71,1238.79 1240.54,1264.96 1208.5,1290C 1026.85,1411.59 829.518,1446.59 616.5,1395C 557.105,1378.3 500.438,1354.97 446.5,1325C 429.833,1314.67 413.167,1304.33 396.5,1294C 379.833,1281 363.167,1268 346.5,1255C 330.5,1241 314.5,1227 298.5,1213C 271.205,1182.71 245.038,1151.54 220,1119.5C 98.4099,937.85 63.4099,740.517 115,527.5C 131.697,468.105 155.031,411.438 185,357.5C 195.333,340.833 205.667,324.167 216,307.5C 229,290.833 242,274.167 255,257.5C 269,241.5 283,225.5 297,209.5C 327.288,182.205 358.455,156.038 390.5,131C 442.446,96.8572 497.446,68.1905 555.5,45C 626.271,20.3451 698.937,6.17848 773.5,2.5 Z M 1075.5,250.5 C 1075.97,251.906 1076.97,252.573 1078.5,252.5C 1086.98,257.909 1095.65,263.076 1104.5,268C 1112.24,274.186 1119.9,280.352 1127.5,286.5C 1127.97,287.906 1128.97,288.573 1130.5,288.5C 1139.78,296.107 1149.12,303.773 1158.5,311.5C 1158.5,312.833 1159.17,313.5 1160.5,313.5C 1162.09,315.633 1164.09,317.299 1166.5,318.5C 1166.5,319.833 1167.17,320.5 1168.5,320.5C 1168.95,321.458 1169.62,322.292 1170.5,323C 898.627,552.377 626.627,781.544 354.5,1010.5C 354.5,1009.17 353.833,1008.5 352.5,1008.5C 349.233,1001.91 345.566,995.575 341.5,989.5C 341.573,987.973 340.906,986.973 339.5,986.5C 279.91,884.425 255.41,774.092 266,655.5C 271.602,610.432 281.602,566.432 296,523.5C 308.902,493.029 323.402,463.363 339.5,434.5C 340.906,434.027 341.573,433.027 341.5,431.5C 346.909,423.022 352.076,414.355 357,405.5C 363.186,397.764 369.352,390.097 375.5,382.5C 376.906,382.027 377.573,381.027 377.5,379.5C 385.107,370.216 392.773,360.883 400.5,351.5C 401.833,351.5 402.5,350.833 402.5,349.5C 404.633,347.909 406.299,345.909 407.5,343.5C 408.833,343.5 409.5,342.833 409.5,341.5C 411.063,340.055 412.396,338.389 413.5,336.5C 415.833,336.167 417.167,334.833 417.5,332.5C 418.5,330.833 419.833,329.5 421.5,328.5C 423.833,328.167 425.167,326.833 425.5,324.5C 427.389,323.396 429.055,322.063 430.5,320.5C 431.833,320.5 432.5,319.833 432.5,318.5C 434.909,317.299 436.909,315.633 438.5,313.5C 439.833,313.5 440.5,312.833 440.5,311.5C 447.059,306.394 453.392,301.061 459.5,295.5C 461.027,295.573 462.027,294.906 462.5,293.5C 464.5,291.833 466.5,290.167 468.5,288.5C 470.027,288.573 471.027,287.906 471.5,286.5C 480.51,279.003 489.844,272.003 499.5,265.5C 500.833,265.5 501.5,264.833 501.5,263.5C 508.092,260.233 514.425,256.566 520.5,252.5C 522.027,252.573 523.027,251.906 523.5,250.5C 625.575,190.91 735.908,166.41 854.5,177C 899.568,182.602 943.568,192.602 986.5,207C 1016.97,219.902 1046.64,234.402 1075.5,250.5 Z M 1259.5,986.5 C 1258.09,986.973 1257.43,987.973 1257.5,989.5C 1252.09,997.978 1246.92,1006.65 1242,1015.5C 1235.81,1023.24 1229.65,1030.9 1223.5,1038.5C 1222.09,1038.97 1221.43,1039.97 1221.5,1041.5C 1213.89,1050.78 1206.23,1060.12 1198.5,1069.5C 1197.17,1069.5 1196.5,1070.17 1196.5,1071.5C 1194.37,1073.09 1192.7,1075.09 1191.5,1077.5C 1190.17,1077.5 1189.5,1078.17 1189.5,1079.5C 1187.94,1080.94 1186.6,1082.61 1185.5,1084.5C 1183.17,1084.83 1181.83,1086.17 1181.5,1088.5C 1180.5,1090.17 1179.17,1091.5 1177.5,1092.5C 1175.17,1092.83 1173.83,1094.17 1173.5,1096.5C 1171.61,1097.6 1169.94,1098.94 1168.5,1100.5C 1167.17,1100.5 1166.5,1101.17 1166.5,1102.5C 1164.09,1103.7 1162.09,1105.37 1160.5,1107.5C 1159.17,1107.5 1158.5,1108.17 1158.5,1109.5C 1151.94,1114.61 1145.61,1119.94 1139.5,1125.5C 1137.97,1125.43 1136.97,1126.09 1136.5,1127.5C 1134.5,1129.17 1132.5,1130.83 1130.5,1132.5C 1128.97,1132.43 1127.97,1133.09 1127.5,1134.5C 1118.49,1142 1109.16,1149 1099.5,1155.5C 1098.17,1155.5 1097.5,1156.17 1097.5,1157.5C 1090.91,1160.77 1084.57,1164.43 1078.5,1168.5C 1076.97,1168.43 1075.97,1169.09 1075.5,1170.5C 973.425,1230.09 863.092,1254.59 744.5,1244C 699.432,1238.4 655.432,1228.4 612.5,1214C 582.029,1201.1 552.363,1186.6 523.5,1170.5C 523.027,1169.09 522.027,1168.43 520.5,1168.5C 504.025,1159.46 488.692,1148.79 474.5,1136.5C 740.608,911.606 1006.94,686.939 1273.5,462.5C 1275.19,464.359 1276.69,466.359 1278,468.5C 1331.68,577.615 1347.68,692.282 1326,812.5C 1322.86,824.74 1320.19,837.074 1318,849.5C 1304.01,897.663 1284.51,943.33 1259.5,986.5 Z"/></g>
<g><path style="opacity:0.046" fill="#000000" d="M 523.5,250.5 C 523.027,251.906 522.027,252.573 520.5,252.5C 520.973,251.094 521.973,250.427 523.5,250.5 Z"/></g>
<g><path style="opacity:0.05" fill="#000000" d="M 1075.5,250.5 C 1077.03,250.427 1078.03,251.094 1078.5,252.5C 1076.97,252.573 1075.97,251.906 1075.5,250.5 Z"/></g>
<g><path style="opacity:0.095" fill="#000000" d="M 501.5,263.5 C 501.5,264.833 500.833,265.5 499.5,265.5C 499.833,264.5 500.5,263.833 501.5,263.5 Z"/></g>
<g><path style="opacity:0.071" fill="#000000" d="M 471.5,286.5 C 471.027,287.906 470.027,288.573 468.5,288.5C 468.973,287.094 469.973,286.427 471.5,286.5 Z"/></g>
<g><path style="opacity:0.071" fill="#000000" d="M 1127.5,286.5 C 1129.03,286.427 1130.03,287.094 1130.5,288.5C 1128.97,288.573 1127.97,287.906 1127.5,286.5 Z"/></g>
<g><path style="opacity:0.123" fill="#000000" d="M 462.5,293.5 C 462.027,294.906 461.027,295.573 459.5,295.5C 459.973,294.094 460.973,293.427 462.5,293.5 Z"/></g>
<g><path style="opacity:0.088" fill="#000000" d="M 440.5,311.5 C 440.5,312.833 439.833,313.5 438.5,313.5C 438.833,312.5 439.5,311.833 440.5,311.5 Z"/></g>
<g><path style="opacity:0.095" fill="#000000" d="M 1158.5,311.5 C 1159.5,311.833 1160.17,312.5 1160.5,313.5C 1159.17,313.5 1158.5,312.833 1158.5,311.5 Z"/></g>
<g><path style="opacity:0.114" fill="#000000" d="M 432.5,318.5 C 432.5,319.833 431.833,320.5 430.5,320.5C 430.833,319.5 431.5,318.833 432.5,318.5 Z"/></g>
<g><path style="opacity:0.114" fill="#000000" d="M 1166.5,318.5 C 1167.5,318.833 1168.17,319.5 1168.5,320.5C 1167.17,320.5 1166.5,319.833 1166.5,318.5 Z"/></g>
<g><path style="opacity:0.117" fill="#000000" d="M 425.5,324.5 C 425.167,326.833 423.833,328.167 421.5,328.5C 422.5,326.833 423.833,325.5 425.5,324.5 Z"/></g>
<g><path style="opacity:0.122" fill="#000000" d="M 417.5,332.5 C 417.167,334.833 415.833,336.167 413.5,336.5C 414.5,334.833 415.833,333.5 417.5,332.5 Z"/></g>
<g><path style="opacity:0.114" fill="#000000" d="M 409.5,341.5 C 409.5,342.833 408.833,343.5 407.5,343.5C 407.833,342.5 408.5,341.833 409.5,341.5 Z"/></g>
<g><path style="opacity:0.095" fill="#000000" d="M 402.5,349.5 C 402.5,350.833 401.833,351.5 400.5,351.5C 400.833,350.5 401.5,349.833 402.5,349.5 Z"/></g>
<g><path style="opacity:0.071" fill="#000000" d="M 377.5,379.5 C 377.573,381.027 376.906,382.027 375.5,382.5C 375.427,380.973 376.094,379.973 377.5,379.5 Z"/></g>
<g><path style="opacity:0.05" fill="#000000" d="M 341.5,431.5 C 341.573,433.027 340.906,434.027 339.5,434.5C 339.427,432.973 340.094,431.973 341.5,431.5 Z"/></g>
<g><path style="opacity:0.046" fill="#000000" d="M 339.5,986.5 C 340.906,986.973 341.573,987.973 341.5,989.5C 340.094,989.027 339.427,988.027 339.5,986.5 Z"/></g>
<g><path style="opacity:0.05" fill="#000000" d="M 1259.5,986.5 C 1259.57,988.027 1258.91,989.027 1257.5,989.5C 1257.43,987.973 1258.09,986.973 1259.5,986.5 Z"/></g>
<g><path style="opacity:0.095" fill="#000000" d="M 352.5,1008.5 C 353.833,1008.5 354.5,1009.17 354.5,1010.5C 353.5,1010.17 352.833,1009.5 352.5,1008.5 Z"/></g>
<g><path style="opacity:0.071" fill="#000000" d="M 1223.5,1038.5 C 1223.57,1040.03 1222.91,1041.03 1221.5,1041.5C 1221.43,1039.97 1222.09,1038.97 1223.5,1038.5 Z"/></g>
<g><path style="opacity:0.095" fill="#000000" d="M 1198.5,1069.5 C 1198.17,1070.5 1197.5,1071.17 1196.5,1071.5C 1196.5,1070.17 1197.17,1069.5 1198.5,1069.5 Z"/></g>
<g><path style="opacity:0.114" fill="#000000" d="M 1191.5,1077.5 C 1191.17,1078.5 1190.5,1079.17 1189.5,1079.5C 1189.5,1078.17 1190.17,1077.5 1191.5,1077.5 Z"/></g>
<g><path style="opacity:0.122" fill="#000000" d="M 1185.5,1084.5 C 1184.5,1086.17 1183.17,1087.5 1181.5,1088.5C 1181.83,1086.17 1183.17,1084.83 1185.5,1084.5 Z"/></g>
<g><path style="opacity:0.117" fill="#000000" d="M 1177.5,1092.5 C 1176.5,1094.17 1175.17,1095.5 1173.5,1096.5C 1173.83,1094.17 1175.17,1092.83 1177.5,1092.5 Z"/></g>
<g><path style="opacity:0.114" fill="#000000" d="M 1168.5,1100.5 C 1168.17,1101.5 1167.5,1102.17 1166.5,1102.5C 1166.5,1101.17 1167.17,1100.5 1168.5,1100.5 Z"/></g>
<g><path style="opacity:0.088" fill="#000000" d="M 1160.5,1107.5 C 1160.17,1108.5 1159.5,1109.17 1158.5,1109.5C 1158.5,1108.17 1159.17,1107.5 1160.5,1107.5 Z"/></g>
<g><path style="opacity:0.123" fill="#000000" d="M 1139.5,1125.5 C 1139.03,1126.91 1138.03,1127.57 1136.5,1127.5C 1136.97,1126.09 1137.97,1125.43 1139.5,1125.5 Z"/></g>
<g><path style="opacity:0.071" fill="#000000" d="M 1130.5,1132.5 C 1130.03,1133.91 1129.03,1134.57 1127.5,1134.5C 1127.97,1133.09 1128.97,1132.43 1130.5,1132.5 Z"/></g>
<g><path style="opacity:0.095" fill="#000000" d="M 1099.5,1155.5 C 1099.17,1156.5 1098.5,1157.17 1097.5,1157.5C 1097.5,1156.17 1098.17,1155.5 1099.5,1155.5 Z"/></g>
<g><path style="opacity:0.05" fill="#000000" d="M 520.5,1168.5 C 522.027,1168.43 523.027,1169.09 523.5,1170.5C 521.973,1170.57 520.973,1169.91 520.5,1168.5 Z"/></g>
<g><path style="opacity:0.046" fill="#000000" d="M 1078.5,1168.5 C 1078.03,1169.91 1077.03,1170.57 1075.5,1170.5C 1075.97,1169.09 1076.97,1168.43 1078.5,1168.5 Z"/></g>
<g><path style="opacity:0.852" fill="#fefffe" d="M 188.5,1576.5 C 190.103,1576.31 191.437,1576.81 192.5,1578C 204.195,1578.23 215.862,1578.9 227.5,1580C 229.007,1581.47 229.674,1583.31 229.5,1585.5C 229.421,1589.16 228.421,1592.49 226.5,1595.5C 225.507,1600.12 225.173,1604.79 225.5,1609.5C 251.905,1609.42 278.238,1609.42 304.5,1609.5C 304.336,1628.45 304.503,1647.45 305,1666.5C 304.691,1667.77 304.191,1668.93 303.5,1670C 297.175,1670.5 290.842,1670.67 284.5,1670.5C 284.5,1675.5 284.5,1680.5 284.5,1685.5C 272.162,1685.33 259.829,1685.5 247.5,1686C 249.644,1696.84 252.644,1707.34 256.5,1717.5C 263.583,1710.12 268.916,1701.79 272.5,1692.5C 274.857,1692.34 277.19,1692.5 279.5,1693C 285.171,1697.45 291.171,1701.45 297.5,1705C 299.174,1706.51 300.174,1708.34 300.5,1710.5C 301.822,1710.33 302.989,1710.66 304,1711.5C 304.667,1714.5 304.667,1717.5 304,1720.5C 301.752,1721.66 299.586,1723 297.5,1724.5C 287.836,1734.04 278.502,1743.71 269.5,1753.5C 272.659,1760.05 275.826,1766.71 279,1773.5C 282.852,1779.88 286.685,1786.21 290.5,1792.5C 298.434,1802.28 306.601,1811.94 315,1821.5C 315.667,1823.5 315.667,1825.5 315,1827.5C 309.63,1833.01 305.797,1839.34 303.5,1846.5C 302.5,1846.5 301.5,1846.5 300.5,1846.5C 299.535,1855.33 295.202,1857.49 287.5,1853C 277.282,1840.33 267.782,1827.16 259,1813.5C 254.119,1803.51 249.119,1793.51 244,1783.5C 243.08,1780.9 242.413,1778.23 242,1775.5C 240.842,1775 240.009,1774.17 239.5,1773C 238.016,1766.87 235.849,1761.04 233,1755.5C 231.11,1748.96 229.277,1742.46 227.5,1736C 227.231,1734.39 226.397,1733.23 225,1732.5C 221.576,1717.85 218.243,1703.18 215,1688.5C 210.62,1694.62 205.787,1700.29 200.5,1705.5C 201.015,1707.23 201.682,1708.89 202.5,1710.5C 205.948,1712.06 207.948,1714.72 208.5,1718.5C 209.803,1720.38 211.303,1722.04 213,1723.5C 233.398,1758.28 242.065,1795.95 239,1836.5C 237.662,1846.42 234.162,1855.42 228.5,1863.5C 227.675,1864.39 226.675,1864.72 225.5,1864.5C 225.719,1865.68 225.386,1866.68 224.5,1867.5C 221.239,1868.95 218.239,1870.79 215.5,1873C 212.041,1873.79 208.707,1874.79 205.5,1876C 192.154,1876.83 178.821,1876.67 165.5,1875.5C 162.835,1870.54 161.168,1865.21 160.5,1859.5C 159.996,1856.66 158.329,1855.32 155.5,1855.5C 155.553,1851.33 154.22,1847.66 151.5,1844.5C 147.277,1846.59 143.277,1849.09 139.5,1852C 134.374,1853.65 129.374,1855.65 124.5,1858C 122.833,1858.67 121.167,1858.67 119.5,1858C 117.333,1855.17 114.833,1852.67 112,1850.5C 110.003,1847.84 108.503,1844.84 107.5,1841.5C 103.845,1839.61 101.012,1836.94 99,1833.5C 98.5065,1831.87 98.3398,1830.2 98.5,1828.5C 105.012,1826.15 111.512,1823.82 118,1821.5C 124.165,1818.04 130.665,1815.04 137.5,1812.5C 143.793,1808.93 149.793,1805.1 155.5,1801C 157.577,1800.81 159.577,1800.31 161.5,1799.5C 172.963,1791.53 183.963,1783.03 194.5,1774C 195.448,1773.52 196.448,1773.35 197.5,1773.5C 196.94,1769.87 195.606,1766.54 193.5,1763.5C 182.999,1771.16 172.332,1778.66 161.5,1786C 156.056,1786.47 151.389,1788.47 147.5,1792C 141.035,1794.73 134.535,1797.23 128,1799.5C 124.586,1799.1 121.919,1797.43 120,1794.5C 116.29,1786.76 111.79,1779.42 106.5,1772.5C 104.401,1774.53 102.068,1774.87 99.5,1773.5C 97.2485,1770.66 95.2485,1767.66 93.5,1764.5C 92.6906,1762.93 92.3573,1761.26 92.5,1759.5C 91.5,1759.5 90.5,1759.5 89.5,1759.5C 88.1964,1755.29 87.0298,1750.96 86,1746.5C 85.883,1777.18 86.383,1807.85 87.5,1838.5C 87.1667,1852.17 86.8333,1865.83 86.5,1879.5C 74.5506,1880.48 62.5506,1880.81 50.5,1880.5C 50.3178,1878.33 49.6511,1876.33 48.5,1874.5C 50.2621,1841.26 51.2621,1807.92 51.5,1774.5C 51.3333,1769.83 51.1667,1765.17 51,1760.5C 49.7308,1761.9 49.2308,1763.57 49.5,1765.5C 48.5,1765.5 47.5,1765.5 46.5,1765.5C 46.4575,1770.46 45.2909,1775.12 43,1779.5C 38.4587,1790.01 33.1254,1800.01 27,1809.5C 25.2576,1812.22 23.091,1814.56 20.5,1816.5C 17.8447,1817.62 15.178,1817.62 12.5,1816.5C 12.196,1813.48 11.696,1810.48 11,1807.5C 7.9091,1802.53 5.4091,1797.2 3.5,1791.5C 2.50407,1788.2 2.33741,1784.87 3,1781.5C 8.8295,1772.71 14.6628,1763.88 20.5,1755C 21.8001,1752.56 22.8001,1750.06 23.5,1747.5C 24.5,1747.5 25.5,1747.5 26.5,1747.5C 26.4332,1745.6 26.7665,1743.77 27.5,1742C 32.65,1732.44 37.3167,1722.77 41.5,1713C 42.2059,1708.73 43.2059,1704.56 44.5,1700.5C 37.1733,1700.89 29.84,1701.22 22.5,1701.5C 17.4176,1701.58 12.4176,1701.08 7.5,1700C 6.34711,1689.24 6.18044,1678.41 7,1667.5C 21.4215,1666.51 35.9215,1666.18 50.5,1666.5C 50.832,1655.81 50.4987,1645.15 49.5,1634.5C 44.2904,1636.48 38.9571,1637.98 33.5,1639C 29.8333,1639.67 26.1667,1639.67 22.5,1639C 19.3817,1631.27 15.8817,1623.77 12,1616.5C 9.05612,1614.63 7.88945,1611.96 8.5,1608.5C 32.0589,1604.43 55.0589,1598.43 77.5,1590.5C 81.9385,1587.1 86.9385,1585.1 92.5,1584.5C 92.5,1583.5 92.5,1582.5 92.5,1581.5C 94.3666,1581.05 96.1999,1580.38 98,1579.5C 99.8122,1579.49 101.312,1580.16 102.5,1581.5C 107.328,1586.47 112.161,1591.47 117,1596.5C 118.907,1599.31 120.574,1602.31 122,1605.5C 122.49,1606.79 122.657,1608.13 122.5,1609.5C 144.5,1609.5 166.5,1609.5 188.5,1609.5C 187.478,1598.43 187.478,1587.43 188.5,1576.5 Z M 108.5,1615.5 C 109.5,1615.5 110.5,1615.5 111.5,1615.5C 111.5,1632.5 111.5,1649.5 111.5,1666.5C 103.5,1666.5 95.5,1666.5 87.5,1666.5C 87.3334,1652.5 87.5001,1638.5 88,1624.5C 91.3711,1623.14 94.5378,1621.31 97.5,1619C 101.434,1618.3 105.101,1617.13 108.5,1615.5 Z M 148.5,1639.5 C 188.5,1639.5 228.5,1639.5 268.5,1639.5C 268.5,1644.5 268.5,1649.5 268.5,1654.5C 228.501,1655.82 188.501,1655.82 148.5,1654.5C 148.5,1649.5 148.5,1644.5 148.5,1639.5 Z M 117.5,1670.5 C 123.167,1670.5 128.833,1670.5 134.5,1670.5C 134.5,1675.5 134.5,1680.5 134.5,1685.5C 146.518,1685.17 158.518,1685.5 170.5,1686.5C 167.006,1688.94 163.339,1690.94 159.5,1692.5C 159.5,1693.5 159.5,1694.5 159.5,1695.5C 142.892,1702.14 126.225,1708.14 109.5,1713.5C 108.702,1711.92 108.202,1710.26 108,1708.5C 107.333,1712.17 107.333,1715.83 108,1719.5C 112.111,1725.41 115.945,1731.41 119.5,1737.5C 120.325,1738.39 121.325,1738.72 122.5,1738.5C 122.357,1740.26 122.691,1741.93 123.5,1743.5C 126.106,1744.65 128.773,1744.82 131.5,1744C 144.918,1738.85 158.085,1733.01 171,1726.5C 173.428,1727.89 175.261,1729.89 176.5,1732.5C 177.428,1733.77 177.595,1735.1 177,1736.5C 161.242,1746.39 144.742,1754.89 127.5,1762C 121.639,1763.84 115.806,1765.68 110,1767.5C 111.423,1764.48 112.257,1761.14 112.5,1757.5C 113.675,1757.72 114.675,1757.39 115.5,1756.5C 116.657,1754.32 117.99,1752.32 119.5,1750.5C 120.833,1748.17 120.833,1745.83 119.5,1743.5C 114.497,1737.49 109.497,1731.49 104.5,1725.5C 99.6534,1717.65 94.9867,1709.65 90.5,1701.5C 97.8951,1701.61 105.562,1701.44 113.5,1701C 114.5,1700.5 115.5,1700 116.5,1699.5C 117.498,1689.86 117.832,1680.19 117.5,1670.5 Z M 202.5,1808.5 C 206.386,1819.93 204.719,1830.6 197.5,1840.5C 195.376,1841.15 193.376,1841.98 191.5,1843C 180.172,1843.5 168.838,1843.67 157.5,1843.5C 157.5,1842.5 157.5,1841.5 157.5,1840.5C 159.199,1840.66 160.866,1840.49 162.5,1840C 177.557,1831.42 190.89,1820.92 202.5,1808.5 Z"/></g>
<g><path style="opacity:0.855" fill="#fefffe" d="M 383.5,1576.5 C 388.704,1578.08 394.037,1579.25 399.5,1580C 402.996,1580.89 406.163,1582.39 409,1584.5C 417.474,1584.35 421.474,1588.35 421,1596.5C 420.308,1597.03 419.808,1597.69 419.5,1598.5C 425.104,1600.1 430.437,1599.6 435.5,1597C 449.019,1595.29 462.686,1593.96 476.5,1593C 488.679,1590.17 500.679,1586.83 512.5,1583C 519.02,1588.02 524.686,1593.85 529.5,1600.5C 531.829,1605.11 531.995,1609.78 530,1614.5C 515.485,1616.47 500.985,1618.8 486.5,1621.5C 485.552,1626.44 485.219,1631.44 485.5,1636.5C 500.132,1634.94 514.799,1634.44 529.5,1635C 530.893,1636.17 531.727,1637.67 532,1639.5C 532.333,1644.17 532.667,1648.83 533,1653.5C 535.554,1652.23 538.387,1651.56 541.5,1651.5C 546.695,1651.46 551.695,1652.13 556.5,1653.5C 556.667,1638.16 556.5,1622.83 556,1607.5C 554.956,1606.38 554.29,1605.04 554,1603.5C 553.333,1596.5 553.333,1589.5 554,1582.5C 561.754,1581.35 569.587,1581.19 577.5,1582C 582.563,1583.85 587.729,1585.35 593,1586.5C 593.667,1589.17 593.667,1591.83 593,1594.5C 591.148,1602.12 589.815,1609.79 589,1617.5C 588.5,1629.5 588.333,1641.5 588.5,1653.5C 599.673,1653.83 610.673,1653.16 621.5,1651.5C 624.833,1651.67 628.167,1651.83 631.5,1652C 632,1652.5 632.5,1653 633,1653.5C 634.147,1707 633.147,1760.33 630,1813.5C 628.051,1827.82 625.717,1842.15 623,1856.5C 620.284,1860.16 617.784,1863.99 615.5,1868C 612.069,1869.84 608.735,1871.84 605.5,1874C 592.399,1877.32 579.399,1877.32 566.5,1874C 564.267,1868.08 563.101,1861.91 563,1855.5C 561.335,1852 560.002,1848.33 559,1844.5C 558.167,1843.5 557.333,1842.5 556.5,1841.5C 550.157,1853.53 542.823,1864.87 534.5,1875.5C 532.167,1876.83 529.833,1876.83 527.5,1875.5C 521.56,1869.05 514.893,1863.55 507.5,1859C 505.271,1856.45 504.938,1853.61 506.5,1850.5C 503.743,1849.02 501.41,1849.52 499.5,1852C 473.977,1856.24 448.31,1859.57 422.5,1862C 418.02,1863.06 413.687,1864.56 409.5,1866.5C 407.272,1865.78 405.439,1864.45 404,1862.5C 401.842,1851.93 400.008,1841.27 398.5,1830.5C 417.287,1830 435.954,1828.66 454.5,1826.5C 454.5,1822.5 454.5,1818.5 454.5,1814.5C 438.833,1814.5 423.167,1814.5 407.5,1814.5C 407.5,1804.83 407.5,1795.17 407.5,1785.5C 423.167,1785.5 438.833,1785.5 454.5,1785.5C 454.5,1781.17 454.5,1776.83 454.5,1772.5C 438.737,1772.62 423.07,1772.62 407.5,1772.5C 407.333,1740.5 407.5,1708.5 408,1676.5C 423.422,1675.51 438.922,1675.18 454.5,1675.5C 454.5,1672.5 454.5,1669.5 454.5,1666.5C 437.83,1666.67 421.163,1666.5 404.5,1666C 403.667,1665.17 402.833,1664.33 402,1663.5C 401.667,1656.5 401.333,1649.5 401,1642.5C 397.755,1649.36 394.755,1656.36 392,1663.5C 391.333,1718.83 391.333,1774.17 392,1829.5C 393.122,1837.93 393.622,1846.43 393.5,1855C 393.333,1862.5 393.167,1870 393,1877.5C 392.167,1878.33 391.333,1879.17 390.5,1880C 379.453,1880.81 368.453,1880.64 357.5,1879.5C 357.167,1855.17 356.833,1830.83 356.5,1806.5C 356.388,1778.01 356.888,1749.67 358,1721.5C 355.229,1726.6 352.062,1731.44 348.5,1736C 345.32,1739.23 341.653,1740.06 337.5,1738.5C 335.782,1729.86 333.782,1721.2 331.5,1712.5C 330.914,1712.29 330.414,1711.96 330,1711.5C 328.71,1706.89 328.376,1702.22 329,1697.5C 355.928,1662.55 373.262,1623.22 381,1579.5C 382.417,1578.92 383.25,1577.92 383.5,1576.5 Z M 403.5,1635.5 C 406.858,1626.94 409.858,1618.27 412.5,1609.5C 415.013,1611.25 416.346,1613.75 416.5,1617C 418.372,1620.97 420.705,1624.64 423.5,1628C 429.167,1628.67 434.833,1628.67 440.5,1628C 444.849,1625.79 449.515,1624.96 454.5,1625.5C 454.5,1629.17 454.5,1632.83 454.5,1636.5C 437.484,1634.87 420.484,1634.54 403.5,1635.5 Z M 529.5,1665.5 C 531.459,1671.75 532.126,1678.42 531.5,1685.5C 538.833,1685.5 546.167,1685.5 553.5,1685.5C 552.494,1705.11 551.327,1724.78 550,1744.5C 547.479,1757.92 544.646,1771.25 541.5,1784.5C 537.743,1791.66 534.91,1799.33 533,1807.5C 529.129,1814.17 525.462,1820.84 522,1827.5C 522.29,1824.59 522.457,1821.59 522.5,1818.5C 510.496,1820.77 498.162,1822.1 485.5,1822.5C 485.5,1819.83 485.5,1817.17 485.5,1814.5C 498.5,1814.5 511.5,1814.5 524.5,1814.5C 525.988,1809.88 526.655,1805.05 526.5,1800C 526.687,1795.34 526.021,1790.84 524.5,1786.5C 511.517,1785.5 498.517,1785.17 485.5,1785.5C 485.5,1781.17 485.5,1776.83 485.5,1772.5C 500.597,1772.63 515.597,1772.63 530.5,1772.5C 530.5,1740.17 530.5,1707.83 530.5,1675.5C 515.5,1675.5 500.5,1675.5 485.5,1675.5C 485.5,1672.5 485.5,1669.5 485.5,1666.5C 500.343,1666.83 515.01,1666.5 529.5,1665.5 Z M 588.5,1685.5 C 592.833,1685.5 597.167,1685.5 601.5,1685.5C 602.192,1703.03 601.359,1720.36 599,1737.5C 599.408,1768.78 597.408,1799.78 593,1830.5C 592.473,1834.21 590.64,1837.04 587.5,1839C 577.656,1839.81 567.99,1839.31 558.5,1837.5C 573.053,1806.54 581.219,1773.88 583,1739.5C 583.915,1738.67 584.581,1737.67 585,1736.5C 587.07,1719.67 588.237,1702.67 588.5,1685.5 Z M 438.5,1701.5 C 443.833,1701.5 449.167,1701.5 454.5,1701.5C 454.5,1704.83 454.5,1708.17 454.5,1711.5C 449.167,1711.5 443.833,1711.5 438.5,1711.5C 438.5,1708.17 438.5,1704.83 438.5,1701.5 Z M 485.5,1701.5 C 490.5,1701.5 495.5,1701.5 500.5,1701.5C 500.5,1704.83 500.5,1708.17 500.5,1711.5C 495.5,1711.5 490.5,1711.5 485.5,1711.5C 485.5,1708.17 485.5,1704.83 485.5,1701.5 Z M 438.5,1735.5 C 443.833,1735.5 449.167,1735.5 454.5,1735.5C 454.5,1739.5 454.5,1743.5 454.5,1747.5C 449.167,1747.5 443.833,1747.5 438.5,1747.5C 438.5,1743.5 438.5,1739.5 438.5,1735.5 Z M 485.5,1735.5 C 490.5,1735.5 495.5,1735.5 500.5,1735.5C 500.5,1739.5 500.5,1743.5 500.5,1747.5C 495.5,1747.5 490.5,1747.5 485.5,1747.5C 485.5,1743.5 485.5,1739.5 485.5,1735.5 Z"/></g>
<g><path style="opacity:0.861" fill="#fefffe" d="M 717.5,1576.5 C 726.514,1578.09 735.514,1579.75 744.5,1581.5C 744.5,1582.5 744.5,1583.5 744.5,1584.5C 752.781,1583.8 757.447,1587.46 758.5,1595.5C 757.5,1595.5 756.5,1595.5 755.5,1595.5C 755.657,1596.87 755.49,1598.21 755,1599.5C 751.405,1603.32 748.738,1607.66 747,1612.5C 744.928,1616.59 743.762,1620.93 743.5,1625.5C 742.5,1625.5 741.5,1625.5 740.5,1625.5C 738.921,1635.53 735.421,1644.87 730,1653.5C 729.833,1728.84 729.333,1804.17 728.5,1879.5C 716.303,1880.83 704.137,1880.83 692,1879.5C 691.667,1825.83 691.333,1772.17 691,1718.5C 684.872,1726 678.705,1733.33 672.5,1740.5C 670.235,1741.65 667.902,1741.81 665.5,1741C 662.172,1730.66 658.338,1720.49 654,1710.5C 653.333,1707.5 653.333,1704.5 654,1701.5C 664.164,1691.55 672.664,1680.21 679.5,1667.5C 680.325,1666.61 681.325,1666.28 682.5,1666.5C 682.343,1665.13 682.51,1663.79 683,1662.5C 688.617,1655.33 692.451,1647.33 694.5,1638.5C 695.5,1638.5 696.5,1638.5 697.5,1638.5C 697.838,1636.15 698.338,1633.81 699,1631.5C 704.151,1621.04 708.651,1610.37 712.5,1599.5C 714.573,1591.9 716.24,1584.23 717.5,1576.5 Z"/></g>
<g><path style="opacity:0.871" fill="#fefffe" d="M 1439.5,1576.5 C 1452.82,1577.44 1466.15,1578.28 1479.5,1579C 1483.41,1579.41 1485.41,1581.58 1485.5,1585.5C 1484.56,1588.81 1483.73,1592.15 1483,1595.5C 1482.5,1610.16 1482.33,1624.83 1482.5,1639.5C 1518.51,1639.17 1554.51,1639.5 1590.5,1640.5C 1591.14,1641.65 1591.98,1642.65 1593,1643.5C 1593.65,1651.64 1592.99,1659.64 1591,1667.5C 1590.83,1681.83 1590.67,1696.17 1590.5,1710.5C 1590.28,1736.95 1591.11,1763.28 1593,1789.5C 1592.36,1790.65 1591.52,1791.65 1590.5,1792.5C 1578.51,1793.67 1566.51,1793.83 1554.5,1793C 1554,1792.5 1553.5,1792 1553,1791.5C 1552.5,1786.85 1552.33,1782.18 1552.5,1777.5C 1529.17,1777.5 1505.83,1777.5 1482.5,1777.5C 1482.67,1811.17 1482.5,1844.83 1482,1878.5C 1481.25,1879.13 1480.42,1879.63 1479.5,1880C 1466.92,1880.82 1454.42,1880.65 1442,1879.5C 1441.5,1845.5 1441.33,1811.5 1441.5,1777.5C 1419.17,1777.5 1396.83,1777.5 1374.5,1777.5C 1375.05,1783.4 1374.39,1789.06 1372.5,1794.5C 1360.51,1795.67 1348.51,1795.83 1336.5,1795C 1336,1794.5 1335.5,1794 1335,1793.5C 1335.52,1742.83 1335.52,1692.17 1335,1641.5C 1335.5,1641 1336,1640.5 1336.5,1640C 1371.5,1639.5 1406.5,1639.33 1441.5,1639.5C 1441.94,1618.34 1441.27,1597.34 1439.5,1576.5 Z M 1374.5,1676.5 C 1396.83,1676.5 1419.17,1676.5 1441.5,1676.5C 1441.5,1697.83 1441.5,1719.17 1441.5,1740.5C 1419.17,1740.5 1396.83,1740.5 1374.5,1740.5C 1374.5,1719.17 1374.5,1697.83 1374.5,1676.5 Z M 1482.5,1676.5 C 1505.83,1676.5 1529.17,1676.5 1552.5,1676.5C 1552.5,1697.83 1552.5,1719.17 1552.5,1740.5C 1529.17,1740.5 1505.83,1740.5 1482.5,1740.5C 1482.5,1719.17 1482.5,1697.83 1482.5,1676.5 Z"/></g>
<g><path style="opacity:0.865" fill="#fefffe" d="M 826.5,1578.5 C 840.537,1578.16 854.537,1578.66 868.5,1580C 870.152,1581.47 871.152,1583.3 871.5,1585.5C 870.608,1588.81 869.274,1591.81 867.5,1594.5C 866.507,1599.12 866.173,1603.79 866.5,1608.5C 896.022,1606.99 925.688,1606.49 955.5,1607C 956.156,1612.42 956.489,1617.92 956.5,1623.5C 956.474,1629.25 955.807,1634.75 954.5,1640C 890.338,1639.2 826.171,1639.36 762,1640.5C 758.779,1640.46 755.612,1640.13 752.5,1639.5C 751.501,1628.52 751.168,1617.52 751.5,1606.5C 777.318,1606.29 802.985,1606.95 828.5,1608.5C 828.826,1598.32 828.16,1588.32 826.5,1578.5 Z"/></g>
<g><path style="opacity:0.882" fill="#fefffe" d="M 1129.5,1579.5 C 1138.51,1579.33 1147.51,1579.5 1156.5,1580C 1161.66,1581.28 1166.99,1581.95 1172.5,1582C 1173.6,1583.68 1175.1,1584.84 1177,1585.5C 1177.67,1587.5 1177.67,1589.5 1177,1591.5C 1176,1593.83 1175,1596.17 1174,1598.5C 1171.79,1627.39 1170.95,1656.39 1171.5,1685.5C 1202.5,1685.33 1233.5,1685.5 1264.5,1686C 1265.82,1698.44 1265.82,1710.94 1264.5,1723.5C 1263.71,1724.24 1263.05,1725.08 1262.5,1726C 1255.83,1726.67 1249.17,1726.67 1242.5,1726C 1239.96,1725.86 1237.62,1725.19 1235.5,1724C 1214.17,1723.5 1192.84,1723.33 1171.5,1723.5C 1171.5,1757.83 1171.5,1792.17 1171.5,1826.5C 1209.17,1826.5 1246.83,1826.5 1284.5,1826.5C 1285.05,1840.3 1284.39,1853.97 1282.5,1867.5C 1234.56,1865.94 1186.56,1865.28 1138.5,1865.5C 1090.45,1865.44 1042.45,1865.94 994.5,1867C 993.953,1866.08 993.287,1865.24 992.5,1864.5C 991.179,1851.94 991.179,1839.44 992.5,1827C 1008.83,1826.5 1025.16,1826.33 1041.5,1826.5C 1041.67,1770.83 1041.5,1715.17 1041,1659.5C 1038.32,1656.02 1037.82,1652.18 1039.5,1648C 1044.83,1647.33 1050.17,1647.33 1055.5,1648C 1055.96,1648.41 1056.29,1648.91 1056.5,1649.5C 1064.81,1650.33 1073.15,1650.83 1081.5,1651C 1085.2,1651.67 1087.2,1653.83 1087.5,1657.5C 1086.27,1661.48 1085.11,1665.48 1084,1669.5C 1083.5,1721.83 1083.33,1774.17 1083.5,1826.5C 1099.5,1826.5 1115.5,1826.5 1131.5,1826.5C 1131.83,1750.16 1131.5,1673.83 1130.5,1597.5C 1128.39,1591.56 1128.06,1585.56 1129.5,1579.5 Z"/></g>
<g><path style="opacity:0.861" fill="#fefffe" d="M 769.5,1650.5 C 821.5,1650.5 873.5,1650.5 925.5,1650.5C 925.833,1672.51 925.5,1694.51 924.5,1716.5C 918.659,1718.97 912.659,1719.14 906.5,1717C 887,1716.83 867.5,1716.67 848,1716.5C 823.07,1716.42 798.237,1716.92 773.5,1718C 772.421,1717.04 771.255,1716.21 770,1715.5C 769.5,1693.84 769.333,1672.17 769.5,1650.5 Z M 805.5,1675.5 C 833.167,1675.5 860.833,1675.5 888.5,1675.5C 888.5,1680.17 888.5,1684.83 888.5,1689.5C 860.833,1689.5 833.167,1689.5 805.5,1689.5C 805.5,1684.83 805.5,1680.17 805.5,1675.5 Z"/></g>
<g><path style="opacity:0.861" fill="#fefffe" d="M 740.5,1726.5 C 776.914,1727.89 813.414,1728.55 850,1728.5C 886.251,1728.39 922.418,1727.89 958.5,1727C 959.316,1728.92 959.983,1730.92 960.5,1733C 959.52,1750.8 959.187,1768.63 959.5,1786.5C 949.539,1787.42 939.539,1787.76 929.5,1787.5C 929.5,1793.17 929.5,1798.83 929.5,1804.5C 910.5,1804.5 891.5,1804.5 872.5,1804.5C 872.667,1820.84 872.5,1837.17 872,1853.5C 871.846,1857.1 870.846,1860.43 869,1863.5C 865.851,1867.65 862.017,1871.15 857.5,1874C 852.146,1875.34 846.813,1876.67 841.5,1878C 835.333,1878.17 829.167,1878.33 823,1878.5C 816.33,1878.46 809.83,1877.79 803.5,1876.5C 802.915,1874.14 801.748,1872.14 800,1870.5C 798.932,1863.09 796.765,1856.09 793.5,1849.5C 790.865,1843.52 792.698,1840.86 799,1841.5C 808.713,1843.43 818.546,1843.93 828.5,1843C 829.759,1842.08 831.092,1841.24 832.5,1840.5C 834.451,1828.68 835.118,1816.68 834.5,1804.5C 812.823,1804.83 791.156,1804.5 769.5,1803.5C 768.549,1798.23 768.215,1792.9 768.5,1787.5C 759.827,1787.67 751.16,1787.5 742.5,1787C 741.584,1786.63 740.75,1786.13 740,1785.5C 739.191,1765.79 739.358,1746.12 740.5,1726.5 Z M 775.5,1757.5 C 824.5,1757.5 873.5,1757.5 922.5,1757.5C 922.5,1762.17 922.5,1766.83 922.5,1771.5C 873.5,1771.5 824.5,1771.5 775.5,1771.5C 775.5,1766.83 775.5,1762.17 775.5,1757.5 Z"/></g>
</svg>
