<?xml version="1.0" encoding="UTF-8"?>
<!DOCTYPE svg PUBLIC "-//W3C//DTD SVG 1.1//EN" "http://www.w3.org/Graphics/SVG/1.1/DTD/svg11.dtd">
<svg xmlns="http://www.w3.org/2000/svg" version="1.1" width="1600px" height="1883px" style="shape-rendering:geometricPrecision; text-rendering:geometricPrecision; image-rendering:optimizeQuality; fill-rule:evenodd; clip-rule:evenodd" xmlns:xlink="http://www.w3.org/1999/xlink">
<g><path style="opacity:1" fill="#00a7f2" d="M 773.5,7.5 C 866.1,5.22839 956.1,19.3951 1043.5,50C 1099.23,72.3621 1152.23,99.6955 1202.5,132C 1219.17,145 1235.83,158 1252.5,171C 1268.5,185 1284.5,199 1300.5,213C 1327.79,243.288 1353.96,274.455 1379,306.5C 1500.59,488.149 1535.59,685.482 1484,898.5C 1467.3,957.895 1443.97,1014.56 1414,1068.5C 1403.67,1085.17 1393.33,1101.83 1383,1118.5C 1370,1135.17 1357,1151.83 1344,1168.5C 1330,1184.5 1316,1200.5 1302,1216.5C 1271.71,1243.79 1240.54,1269.96 1208.5,1295C 1026.85,1416.59 829.518,1451.59 616.5,1400C 557.105,1383.3 500.438,1359.97 446.5,1330C 429.833,1319.67 413.167,1309.33 396.5,1299C 379.833,1286 363.167,1273 346.5,1260C 330.5,1246 314.5,1232 298.5,1218C 271.205,1187.71 245.038,1156.54 220,1124.5C 98.4099,942.85 63.4099,745.517 115,532.5C 131.697,473.105 155.031,416.438 185,362.5C 195.333,345.833 205.667,329.167 216,312.5C 229,295.833 242,279.167 255,262.5C 269,246.5 283,230.5 297,214.5C 327.288,187.205 358.455,161.038 390.5,136C 442.446,101.857 497.446,73.1905 555.5,50C 626.271,25.3451 698.937,11.1785 773.5,7.5 Z M 837.5,288.5 C 857.667,290.916 877.667,294.249 897.5,298.5C 900.219,299.913 903.219,300.58 906.5,300.5C 917.515,303.839 928.515,307.172 939.5,310.5C 941.515,311.924 943.848,312.59 946.5,312.5C 953.831,316.61 961.498,319.944 969.5,322.5C 970.78,323.931 972.447,324.598 974.5,324.5C 977.378,326.105 980.378,327.439 983.5,328.5C 984.911,330.539 986.911,331.539 989.5,331.5C 994.895,334.866 1000.56,337.866 1006.5,340.5C 1007.91,342.539 1009.91,343.539 1012.5,343.5C 1017.58,347.247 1022.91,350.58 1028.5,353.5C 1029.29,355.104 1030.62,355.771 1032.5,355.5C 1033.29,356.401 1034.29,357.068 1035.5,357.5C 1035.97,358.906 1036.97,359.573 1038.5,359.5C 1038.97,360.906 1039.97,361.573 1041.5,361.5C 1045.91,365.246 1050.57,368.58 1055.5,371.5C 1055.5,372.833 1056.17,373.5 1057.5,373.5C 1058.44,374.974 1059.77,375.974 1061.5,376.5C 1062.03,378.446 1063.37,379.446 1065.5,379.5C 1067.23,382.2 1069.57,384.2 1072.5,385.5C 1073.91,387.914 1075.91,389.581 1078.5,390.5C 1079.17,391.833 1080.17,392.833 1081.5,393.5C 1081.97,394.906 1082.97,395.573 1084.5,395.5C 1085.91,397.914 1087.91,399.581 1090.5,400.5C 1090.5,402.5 1091.5,403.5 1093.5,403.5C 1094.17,404.833 1095.17,405.833 1096.5,406.5C 1097.58,408.587 1099.25,409.92 1101.5,410.5C 1101.83,411.5 1102.5,412.167 1103.5,412.5C 1104.08,414.749 1105.41,416.415 1107.5,417.5C 1108.17,418.833 1109.17,419.833 1110.5,420.5C 1110.5,422.5 1111.5,423.5 1113.5,423.5C 1114.42,426.089 1116.09,428.089 1118.5,429.5C 1118.43,431.027 1119.09,432.027 1120.5,432.5C 1121.17,433.833 1122.17,434.833 1123.5,435.5C 1124.08,437.749 1125.41,439.415 1127.5,440.5C 1128.17,441.833 1129.17,442.833 1130.5,443.5C 1130.43,445.027 1131.09,446.027 1132.5,446.5C 1132.83,447.5 1133.5,448.167 1134.5,448.5C 1134.55,450.632 1135.55,451.965 1137.5,452.5C 1138.03,454.23 1139.03,455.564 1140.5,456.5C 1140.5,457.833 1141.17,458.5 1142.5,458.5C 1145.42,463.427 1148.75,468.094 1152.5,472.5C 1152.43,474.027 1153.09,475.027 1154.5,475.5C 1155.45,477.777 1156.78,479.777 1158.5,481.5C 1158.23,483.38 1158.9,484.713 1160.5,485.5C 1163.43,491.093 1166.76,496.427 1170.5,501.5C 1170.46,504.089 1171.46,506.089 1173.5,507.5C 1175.74,513.645 1178.74,519.312 1182.5,524.5C 1182.4,526.553 1183.07,528.22 1184.5,529.5C 1186.17,532.833 1187.83,536.167 1189.5,539.5C 1189.4,541.553 1190.07,543.22 1191.5,544.5C 1192.97,549.434 1194.97,554.1 1197.5,558.5C 1197.23,560.38 1197.9,561.713 1199.5,562.5C 1199.89,564.284 1200.56,565.95 1201.5,567.5C 1201.41,570.152 1202.08,572.485 1203.5,574.5C 1205.23,580.954 1207.23,587.287 1209.5,593.5C 1209.26,595.898 1209.93,597.898 1211.5,599.5C 1212.37,602.112 1213.04,604.779 1213.5,607.5C 1213.55,611.078 1214.22,614.411 1215.5,617.5C 1219.82,636.986 1223.15,656.653 1225.5,676.5C 1226.83,702.167 1226.83,727.833 1225.5,753.5C 1223.08,773.667 1219.75,793.667 1215.5,813.5C 1214.09,816.219 1213.42,819.219 1213.5,822.5C 1210.16,833.515 1206.83,844.515 1203.5,855.5C 1202.08,857.515 1201.41,859.848 1201.5,862.5C 1197.39,869.831 1194.06,877.498 1191.5,885.5C 1190.07,886.78 1189.4,888.447 1189.5,890.5C 1187.89,893.378 1186.56,896.378 1185.5,899.5C 1183.46,900.911 1182.46,902.911 1182.5,905.5C 1179.13,910.895 1176.13,916.561 1173.5,922.5C 1171.46,923.911 1170.46,925.911 1170.5,928.5C 1166.75,933.579 1163.42,938.912 1160.5,944.5C 1158.9,945.287 1158.23,946.62 1158.5,948.5C 1157.6,949.29 1156.93,950.29 1156.5,951.5C 1155.09,951.973 1154.43,952.973 1154.5,954.5C 1153.09,954.973 1152.43,955.973 1152.5,957.5C 1148.75,961.906 1145.42,966.573 1142.5,971.5C 1141.17,971.5 1140.5,972.167 1140.5,973.5C 1139.03,974.436 1138.03,975.77 1137.5,977.5C 1135.55,978.035 1134.55,979.368 1134.5,981.5C 1131.8,983.234 1129.8,985.568 1128.5,988.5C 1126.09,989.911 1124.42,991.911 1123.5,994.5C 1122.17,995.167 1121.17,996.167 1120.5,997.5C 1119.09,997.973 1118.43,998.973 1118.5,1000.5C 1116.09,1001.91 1114.42,1003.91 1113.5,1006.5C 1111.5,1006.5 1110.5,1007.5 1110.5,1009.5C 1109.17,1010.17 1108.17,1011.17 1107.5,1012.5C 1105.41,1013.58 1104.08,1015.25 1103.5,1017.5C 1102.5,1017.83 1101.83,1018.5 1101.5,1019.5C 1099.25,1020.08 1097.58,1021.41 1096.5,1023.5C 1095.17,1024.17 1094.17,1025.17 1093.5,1026.5C 1091.5,1026.5 1090.5,1027.5 1090.5,1029.5C 1087.91,1030.42 1085.91,1032.09 1084.5,1034.5C 1082.97,1034.43 1081.97,1035.09 1081.5,1036.5C 1080.17,1037.17 1079.17,1038.17 1078.5,1039.5C 1076.25,1040.08 1074.58,1041.41 1073.5,1043.5C 1072.17,1044.17 1071.17,1045.17 1070.5,1046.5C 1068.97,1046.43 1067.97,1047.09 1067.5,1048.5C 1066.5,1048.83 1065.83,1049.5 1065.5,1050.5C 1063.37,1050.55 1062.03,1051.55 1061.5,1053.5C 1059.77,1054.03 1058.44,1055.03 1057.5,1056.5C 1056.17,1056.5 1055.5,1057.17 1055.5,1058.5C 1050.57,1061.42 1045.91,1064.75 1041.5,1068.5C 1039.97,1068.43 1038.97,1069.09 1038.5,1070.5C 1036.22,1071.45 1034.22,1072.78 1032.5,1074.5C 1030.62,1074.23 1029.29,1074.9 1028.5,1076.5C 1022.91,1079.43 1017.57,1082.76 1012.5,1086.5C 1009.91,1086.46 1007.91,1087.46 1006.5,1089.5C 1000.36,1091.74 994.688,1094.74 989.5,1098.5C 987.447,1098.4 985.78,1099.07 984.5,1100.5C 981.167,1102.17 977.833,1103.83 974.5,1105.5C 972.447,1105.4 970.78,1106.07 969.5,1107.5C 964.566,1108.97 959.9,1110.97 955.5,1113.5C 953.62,1113.23 952.287,1113.9 951.5,1115.5C 949.716,1115.89 948.05,1116.56 946.5,1117.5C 943.848,1117.41 941.515,1118.08 939.5,1119.5C 933.046,1121.23 926.713,1123.23 920.5,1125.5C 918.102,1125.26 916.102,1125.93 914.5,1127.5C 911.888,1128.37 909.221,1129.04 906.5,1129.5C 902.922,1129.55 899.589,1130.22 896.5,1131.5C 877.014,1135.82 857.347,1139.15 837.5,1141.5C 811.833,1142.83 786.167,1142.83 760.5,1141.5C 740.333,1139.08 720.333,1135.75 700.5,1131.5C 697.781,1130.09 694.781,1129.42 691.5,1129.5C 680.485,1126.16 669.485,1122.83 658.5,1119.5C 656.485,1118.08 654.152,1117.41 651.5,1117.5C 644.169,1113.39 636.502,1110.06 628.5,1107.5C 627.22,1106.07 625.553,1105.4 623.5,1105.5C 620.622,1103.89 617.622,1102.56 614.5,1101.5C 613.089,1099.46 611.089,1098.46 608.5,1098.5C 603.105,1095.13 597.439,1092.13 591.5,1089.5C 590.089,1087.46 588.089,1086.46 585.5,1086.5C 580.421,1082.75 575.088,1079.42 569.5,1076.5C 568.713,1074.9 567.38,1074.23 565.5,1074.5C 564.71,1073.6 563.71,1072.93 562.5,1072.5C 562.027,1071.09 561.027,1070.43 559.5,1070.5C 559.027,1069.09 558.027,1068.43 556.5,1068.5C 552.094,1064.75 547.427,1061.42 542.5,1058.5C 542.5,1057.17 541.833,1056.5 540.5,1056.5C 539.564,1055.03 538.23,1054.03 536.5,1053.5C 535.965,1051.55 534.632,1050.55 532.5,1050.5C 530.766,1047.8 528.432,1045.8 525.5,1044.5C 524.089,1042.09 522.089,1040.42 519.5,1039.5C 518.833,1038.17 517.833,1037.17 516.5,1036.5C 516.027,1035.09 515.027,1034.43 513.5,1034.5C 512.089,1032.09 510.089,1030.42 507.5,1029.5C 507.5,1027.5 506.5,1026.5 504.5,1026.5C 503.833,1025.17 502.833,1024.17 501.5,1023.5C 500.415,1021.41 498.749,1020.08 496.5,1019.5C 496.167,1018.5 495.5,1017.83 494.5,1017.5C 493.92,1015.25 492.587,1013.58 490.5,1012.5C 489.833,1011.17 488.833,1010.17 487.5,1009.5C 487.5,1007.5 486.5,1006.5 484.5,1006.5C 483.581,1003.91 481.914,1001.91 479.5,1000.5C 479.573,998.973 478.906,997.973 477.5,997.5C 476.833,996.167 475.833,995.167 474.5,994.5C 473.92,992.251 472.587,990.585 470.5,989.5C 469.833,988.167 468.833,987.167 467.5,986.5C 467.573,984.973 466.906,983.973 465.5,983.5C 465.167,982.5 464.5,981.833 463.5,981.5C 463.446,979.368 462.446,978.035 460.5,977.5C 459.974,975.77 458.974,974.436 457.5,973.5C 457.5,972.167 456.833,971.5 455.5,971.5C 452.58,966.573 449.246,961.906 445.5,957.5C 445.573,955.973 444.906,954.973 443.5,954.5C 442.551,952.223 441.218,950.223 439.5,948.5C 439.771,946.62 439.104,945.287 437.5,944.5C 434.571,938.907 431.238,933.573 427.5,928.5C 427.539,925.911 426.539,923.911 424.5,922.5C 422.263,916.355 419.263,910.688 415.5,905.5C 415.598,903.447 414.931,901.78 413.5,900.5C 411.833,897.167 410.167,893.833 408.5,890.5C 408.598,888.447 407.931,886.78 406.5,885.5C 405.031,880.566 403.031,875.9 400.5,871.5C 400.771,869.62 400.104,868.287 398.5,867.5C 398.107,865.716 397.441,864.05 396.5,862.5C 396.59,859.848 395.924,857.515 394.5,855.5C 392.767,849.046 390.767,842.713 388.5,836.5C 388.741,834.102 388.074,832.102 386.5,830.5C 385.629,827.888 384.963,825.221 384.5,822.5C 384.451,818.922 383.785,815.589 382.5,812.5C 378.184,793.014 374.85,773.347 372.5,753.5C 371.167,727.833 371.167,702.167 372.5,676.5C 374.916,656.333 378.249,636.333 382.5,616.5C 383.913,613.781 384.58,610.781 384.5,607.5C 387.839,596.485 391.172,585.485 394.5,574.5C 395.924,572.485 396.59,570.152 396.5,567.5C 400.61,560.169 403.944,552.502 406.5,544.5C 407.931,543.22 408.598,541.553 408.5,539.5C 410.105,536.622 411.439,533.622 412.5,530.5C 414.539,529.089 415.539,527.089 415.5,524.5C 418.866,519.105 421.866,513.439 424.5,507.5C 426.539,506.089 427.539,504.089 427.5,501.5C 431.247,496.421 434.58,491.088 437.5,485.5C 439.104,484.713 439.771,483.38 439.5,481.5C 440.401,480.71 441.068,479.71 441.5,478.5C 442.906,478.027 443.573,477.027 443.5,475.5C 444.906,475.027 445.573,474.027 445.5,472.5C 449.246,468.094 452.58,463.427 455.5,458.5C 456.833,458.5 457.5,457.833 457.5,456.5C 458.974,455.564 459.974,454.23 460.5,452.5C 462.446,451.965 463.446,450.632 463.5,448.5C 466.2,446.766 468.2,444.432 469.5,441.5C 471.914,440.089 473.581,438.089 474.5,435.5C 475.833,434.833 476.833,433.833 477.5,432.5C 478.906,432.027 479.573,431.027 479.5,429.5C 481.914,428.089 483.581,426.089 484.5,423.5C 486.5,423.5 487.5,422.5 487.5,420.5C 488.833,419.833 489.833,418.833 490.5,417.5C 492.587,416.415 493.92,414.749 494.5,412.5C 495.5,412.167 496.167,411.5 496.5,410.5C 498.749,409.92 500.415,408.587 501.5,406.5C 502.833,405.833 503.833,404.833 504.5,403.5C 506.5,403.5 507.5,402.5 507.5,400.5C 510.089,399.581 512.089,397.914 513.5,395.5C 515.027,395.573 516.027,394.906 516.5,393.5C 517.833,392.833 518.833,391.833 519.5,390.5C 521.749,389.92 523.415,388.587 524.5,386.5C 525.833,385.833 526.833,384.833 527.5,383.5C 529.027,383.573 530.027,382.906 530.5,381.5C 531.5,381.167 532.167,380.5 532.5,379.5C 534.632,379.446 535.965,378.446 536.5,376.5C 538.23,375.974 539.564,374.974 540.5,373.5C 541.833,373.5 542.5,372.833 542.5,371.5C 547.427,368.58 552.094,365.246 556.5,361.5C 558.027,361.573 559.027,360.906 559.5,359.5C 561.777,358.551 563.777,357.218 565.5,355.5C 567.38,355.771 568.713,355.104 569.5,353.5C 575.093,350.571 580.427,347.238 585.5,343.5C 588.089,343.539 590.089,342.539 591.5,340.5C 597.645,338.263 603.312,335.263 608.5,331.5C 610.553,331.598 612.22,330.931 613.5,329.5C 616.833,327.833 620.167,326.167 623.5,324.5C 625.553,324.598 627.22,323.931 628.5,322.5C 633.434,321.031 638.1,319.031 642.5,316.5C 644.38,316.771 645.713,316.104 646.5,314.5C 648.284,314.107 649.95,313.441 651.5,312.5C 654.152,312.59 656.485,311.924 658.5,310.5C 664.954,308.767 671.287,306.767 677.5,304.5C 679.898,304.741 681.898,304.074 683.5,302.5C 686.112,301.629 688.779,300.963 691.5,300.5C 695.078,300.451 698.411,299.785 701.5,298.5C 720.986,294.184 740.653,290.85 760.5,288.5C 786.167,287.167 811.833,287.167 837.5,288.5 Z"/></g>
<g><path style="opacity:0.059" fill="#000000" d="M 837.5,288.5 C 811.833,287.167 786.167,287.167 760.5,288.5C 786.167,285.833 811.833,285.833 837.5,288.5 Z"/></g>
<g><path style="opacity:0.067" fill="#000000" d="M 701.5,298.5 C 698.411,299.785 695.078,300.451 691.5,300.5C 694.544,298.989 697.878,298.322 701.5,298.5 Z"/></g>
<g><path style="opacity:0.075" fill="#000000" d="M 897.5,298.5 C 900.781,298.42 903.781,299.087 906.5,300.5C 903.219,300.58 900.219,299.913 897.5,298.5 Z"/></g>
<g><path style="opacity:0.072" fill="#000000" d="M 683.5,302.5 C 681.898,304.074 679.898,304.741 677.5,304.5C 679.214,303.262 681.214,302.595 683.5,302.5 Z"/></g>
<g><path style="opacity:0.067" fill="#000000" d="M 658.5,310.5 C 656.485,311.924 654.152,312.59 651.5,312.5C 653.515,311.076 655.848,310.41 658.5,310.5 Z"/></g>
<g><path style="opacity:0.075" fill="#000000" d="M 939.5,310.5 C 942.152,310.41 944.485,311.076 946.5,312.5C 943.848,312.59 941.515,311.924 939.5,310.5 Z"/></g>
<g><path style="opacity:0.072" fill="#000000" d="M 646.5,314.5 C 645.713,316.104 644.38,316.771 642.5,316.5C 643.514,315.326 644.847,314.66 646.5,314.5 Z"/></g>
<g><path style="opacity:0.073" fill="#000000" d="M 628.5,322.5 C 627.22,323.931 625.553,324.598 623.5,324.5C 624.78,323.069 626.447,322.402 628.5,322.5 Z"/></g>
<g><path style="opacity:0.073" fill="#000000" d="M 969.5,322.5 C 971.553,322.402 973.22,323.069 974.5,324.5C 972.447,324.598 970.78,323.931 969.5,322.5 Z"/></g>
<g><path style="opacity:0.095" fill="#000000" d="M 983.5,328.5 C 985.819,328.992 987.819,329.992 989.5,331.5C 986.911,331.539 984.911,330.539 983.5,328.5 Z"/></g>
<g><path style="opacity:0.081" fill="#000000" d="M 613.5,329.5 C 612.22,330.931 610.553,331.598 608.5,331.5C 609.78,330.069 611.447,329.402 613.5,329.5 Z"/></g>
<g><path style="opacity:0.064" fill="#000000" d="M 591.5,340.5 C 590.089,342.539 588.089,343.539 585.5,343.5C 587.181,341.992 589.181,340.992 591.5,340.5 Z"/></g>
<g><path style="opacity:0.059" fill="#000000" d="M 1006.5,340.5 C 1008.82,340.992 1010.82,341.992 1012.5,343.5C 1009.91,343.539 1007.91,342.539 1006.5,340.5 Z"/></g>
<g><path style="opacity:0.077" fill="#000000" d="M 569.5,353.5 C 568.713,355.104 567.38,355.771 565.5,355.5C 566.514,354.326 567.847,353.66 569.5,353.5 Z"/></g>
<g><path style="opacity:0.079" fill="#000000" d="M 1028.5,353.5 C 1030.15,353.66 1031.49,354.326 1032.5,355.5C 1030.62,355.771 1029.29,355.104 1028.5,353.5 Z"/></g>
<g><path style="opacity:0.131" fill="#000000" d="M 1035.5,357.5 C 1037.03,357.427 1038.03,358.094 1038.5,359.5C 1036.97,359.573 1035.97,358.906 1035.5,357.5 Z"/></g>
<g><path style="opacity:0.069" fill="#000000" d="M 559.5,359.5 C 559.027,360.906 558.027,361.573 556.5,361.5C 556.973,360.094 557.973,359.427 559.5,359.5 Z"/></g>
<g><path style="opacity:0.07" fill="#000000" d="M 1038.5,359.5 C 1040.03,359.427 1041.03,360.094 1041.5,361.5C 1039.97,361.573 1038.97,360.906 1038.5,359.5 Z"/></g>
<g><path style="opacity:0.075" fill="#000000" d="M 542.5,371.5 C 542.5,372.833 541.833,373.5 540.5,373.5C 540.833,372.5 541.5,371.833 542.5,371.5 Z"/></g>
<g><path style="opacity:0.071" fill="#000000" d="M 1055.5,371.5 C 1056.5,371.833 1057.17,372.5 1057.5,373.5C 1056.17,373.5 1055.5,372.833 1055.5,371.5 Z"/></g>
<g><path style="opacity:0.115" fill="#000000" d="M 536.5,376.5 C 535.965,378.446 534.632,379.446 532.5,379.5C 533.436,378.026 534.77,377.026 536.5,376.5 Z"/></g>
<g><path style="opacity:0.115" fill="#000000" d="M 1061.5,376.5 C 1063.23,377.026 1064.56,378.026 1065.5,379.5C 1063.37,379.446 1062.03,378.446 1061.5,376.5 Z"/></g>
<g><path style="opacity:0.161" fill="#000000" d="M 530.5,381.5 C 530.027,382.906 529.027,383.573 527.5,383.5C 527.973,382.094 528.973,381.427 530.5,381.5 Z"/></g>
<g><path style="opacity:0.093" fill="#000000" d="M 1072.5,385.5 C 1075.09,386.419 1077.09,388.086 1078.5,390.5C 1075.91,389.581 1073.91,387.914 1072.5,385.5 Z"/></g>
<g><path style="opacity:0.078" fill="#000000" d="M 524.5,386.5 C 523.415,388.587 521.749,389.92 519.5,390.5C 520.585,388.413 522.251,387.08 524.5,386.5 Z"/></g>
<g><path style="opacity:0.11" fill="#000000" d="M 516.5,393.5 C 516.027,394.906 515.027,395.573 513.5,395.5C 513.973,394.094 514.973,393.427 516.5,393.5 Z"/></g>
<g><path style="opacity:0.114" fill="#000000" d="M 1081.5,393.5 C 1083.03,393.427 1084.03,394.094 1084.5,395.5C 1082.97,395.573 1081.97,394.906 1081.5,393.5 Z"/></g>
<g><path style="opacity:0.12" fill="#000000" d="M 507.5,400.5 C 507.5,402.5 506.5,403.5 504.5,403.5C 505.167,402.167 506.167,401.167 507.5,400.5 Z"/></g>
<g><path style="opacity:0.12" fill="#000000" d="M 1090.5,400.5 C 1091.83,401.167 1092.83,402.167 1093.5,403.5C 1091.5,403.5 1090.5,402.5 1090.5,400.5 Z"/></g>
<g><path style="opacity:0.121" fill="#000000" d="M 501.5,406.5 C 500.415,408.587 498.749,409.92 496.5,410.5C 497.585,408.413 499.251,407.08 501.5,406.5 Z"/></g>
<g><path style="opacity:0.124" fill="#000000" d="M 1096.5,406.5 C 1098.75,407.08 1100.42,408.413 1101.5,410.5C 1099.25,409.92 1097.58,408.587 1096.5,406.5 Z"/></g>
<g><path style="opacity:0.124" fill="#000000" d="M 494.5,412.5 C 493.92,414.749 492.587,416.415 490.5,417.5C 491.08,415.251 492.413,413.585 494.5,412.5 Z"/></g>
<g><path style="opacity:0.121" fill="#000000" d="M 1103.5,412.5 C 1105.59,413.585 1106.92,415.251 1107.5,417.5C 1105.41,416.415 1104.08,414.749 1103.5,412.5 Z"/></g>
<g><path style="opacity:0.12" fill="#000000" d="M 487.5,420.5 C 487.5,422.5 486.5,423.5 484.5,423.5C 485.167,422.167 486.167,421.167 487.5,420.5 Z"/></g>
<g><path style="opacity:0.12" fill="#000000" d="M 1110.5,420.5 C 1111.83,421.167 1112.83,422.167 1113.5,423.5C 1111.5,423.5 1110.5,422.5 1110.5,420.5 Z"/></g>
<g><path style="opacity:0.114" fill="#000000" d="M 479.5,429.5 C 479.573,431.027 478.906,432.027 477.5,432.5C 477.427,430.973 478.094,429.973 479.5,429.5 Z"/></g>
<g><path style="opacity:0.11" fill="#000000" d="M 1118.5,429.5 C 1119.91,429.973 1120.57,430.973 1120.5,432.5C 1119.09,432.027 1118.43,431.027 1118.5,429.5 Z"/></g>
<g><path style="opacity:0.093" fill="#000000" d="M 474.5,435.5 C 473.581,438.089 471.914,440.089 469.5,441.5C 470.419,438.911 472.086,436.911 474.5,435.5 Z"/></g>
<g><path style="opacity:0.078" fill="#000000" d="M 1123.5,435.5 C 1125.59,436.585 1126.92,438.251 1127.5,440.5C 1125.41,439.415 1124.08,437.749 1123.5,435.5 Z"/></g>
<g><path style="opacity:0.161" fill="#000000" d="M 1130.5,443.5 C 1131.91,443.973 1132.57,444.973 1132.5,446.5C 1131.09,446.027 1130.43,445.027 1130.5,443.5 Z"/></g>
<g><path style="opacity:0.115" fill="#000000" d="M 463.5,448.5 C 463.446,450.632 462.446,451.965 460.5,452.5C 461.026,450.77 462.026,449.436 463.5,448.5 Z"/></g>
<g><path style="opacity:0.115" fill="#000000" d="M 1134.5,448.5 C 1135.97,449.436 1136.97,450.77 1137.5,452.5C 1135.55,451.965 1134.55,450.632 1134.5,448.5 Z"/></g>
<g><path style="opacity:0.071" fill="#000000" d="M 457.5,456.5 C 457.5,457.833 456.833,458.5 455.5,458.5C 455.833,457.5 456.5,456.833 457.5,456.5 Z"/></g>
<g><path style="opacity:0.075" fill="#000000" d="M 1140.5,456.5 C 1141.5,456.833 1142.17,457.5 1142.5,458.5C 1141.17,458.5 1140.5,457.833 1140.5,456.5 Z"/></g>
<g><path style="opacity:0.07" fill="#000000" d="M 445.5,472.5 C 445.573,474.027 444.906,475.027 443.5,475.5C 443.427,473.973 444.094,472.973 445.5,472.5 Z"/></g>
<g><path style="opacity:0.069" fill="#000000" d="M 1152.5,472.5 C 1153.91,472.973 1154.57,473.973 1154.5,475.5C 1153.09,475.027 1152.43,474.027 1152.5,472.5 Z"/></g>
<g><path style="opacity:0.131" fill="#000000" d="M 443.5,475.5 C 443.573,477.027 442.906,478.027 441.5,478.5C 441.427,476.973 442.094,475.973 443.5,475.5 Z"/></g>
<g><path style="opacity:0.079" fill="#000000" d="M 439.5,481.5 C 439.771,483.38 439.104,484.713 437.5,485.5C 437.66,483.847 438.326,482.514 439.5,481.5 Z"/></g>
<g><path style="opacity:0.077" fill="#000000" d="M 1158.5,481.5 C 1159.67,482.514 1160.34,483.847 1160.5,485.5C 1158.9,484.713 1158.23,483.38 1158.5,481.5 Z"/></g>
<g><path style="opacity:0.059" fill="#000000" d="M 427.5,501.5 C 427.539,504.089 426.539,506.089 424.5,507.5C 424.992,505.181 425.992,503.181 427.5,501.5 Z"/></g>
<g><path style="opacity:0.064" fill="#000000" d="M 1170.5,501.5 C 1172.01,503.181 1173.01,505.181 1173.5,507.5C 1171.46,506.089 1170.46,504.089 1170.5,501.5 Z"/></g>
<g><path style="opacity:0.095" fill="#000000" d="M 415.5,524.5 C 415.539,527.089 414.539,529.089 412.5,530.5C 412.992,528.181 413.992,526.181 415.5,524.5 Z"/></g>
<g><path style="opacity:0.081" fill="#000000" d="M 1182.5,524.5 C 1183.93,525.78 1184.6,527.447 1184.5,529.5C 1183.07,528.22 1182.4,526.553 1182.5,524.5 Z"/></g>
<g><path style="opacity:0.073" fill="#000000" d="M 408.5,539.5 C 408.598,541.553 407.931,543.22 406.5,544.5C 406.402,542.447 407.069,540.78 408.5,539.5 Z"/></g>
<g><path style="opacity:0.073" fill="#000000" d="M 1189.5,539.5 C 1190.93,540.78 1191.6,542.447 1191.5,544.5C 1190.07,543.22 1189.4,541.553 1189.5,539.5 Z"/></g>
<g><path style="opacity:0.072" fill="#000000" d="M 1197.5,558.5 C 1198.67,559.514 1199.34,560.847 1199.5,562.5C 1197.9,561.713 1197.23,560.38 1197.5,558.5 Z"/></g>
<g><path style="opacity:0.075" fill="#000000" d="M 396.5,567.5 C 396.59,570.152 395.924,572.485 394.5,574.5C 394.41,571.848 395.076,569.515 396.5,567.5 Z"/></g>
<g><path style="opacity:0.067" fill="#000000" d="M 1201.5,567.5 C 1202.92,569.515 1203.59,571.848 1203.5,574.5C 1202.08,572.485 1201.41,570.152 1201.5,567.5 Z"/></g>
<g><path style="opacity:0.072" fill="#000000" d="M 1209.5,593.5 C 1210.74,595.214 1211.41,597.214 1211.5,599.5C 1209.93,597.898 1209.26,595.898 1209.5,593.5 Z"/></g>
<g><path style="opacity:0.075" fill="#000000" d="M 384.5,607.5 C 384.58,610.781 383.913,613.781 382.5,616.5C 382.42,613.219 383.087,610.219 384.5,607.5 Z"/></g>
<g><path style="opacity:0.067" fill="#000000" d="M 1213.5,607.5 C 1215.01,610.544 1215.68,613.878 1215.5,617.5C 1214.22,614.411 1213.55,611.078 1213.5,607.5 Z"/></g>
<g><path style="opacity:0.059" fill="#000000" d="M 372.5,676.5 C 371.167,702.167 371.167,727.833 372.5,753.5C 369.833,727.833 369.833,702.167 372.5,676.5 Z"/></g>
<g><path style="opacity:0.058" fill="#000000" d="M 1225.5,676.5 C 1228.17,702.167 1228.17,727.833 1225.5,753.5C 1226.83,727.833 1226.83,702.167 1225.5,676.5 Z"/></g>
<g><path style="opacity:0.067" fill="#000000" d="M 382.5,812.5 C 383.785,815.589 384.451,818.922 384.5,822.5C 382.989,819.456 382.322,816.122 382.5,812.5 Z"/></g>
<g><path style="opacity:0.075" fill="#000000" d="M 1215.5,813.5 C 1215.58,816.781 1214.91,819.781 1213.5,822.5C 1213.42,819.219 1214.09,816.219 1215.5,813.5 Z"/></g>
<g><path style="opacity:0.072" fill="#000000" d="M 386.5,830.5 C 388.074,832.102 388.741,834.102 388.5,836.5C 387.262,834.786 386.595,832.786 386.5,830.5 Z"/></g>
<g><path style="opacity:0.067" fill="#000000" d="M 394.5,855.5 C 395.924,857.515 396.59,859.848 396.5,862.5C 395.076,860.485 394.41,858.152 394.5,855.5 Z"/></g>
<g><path style="opacity:0.075" fill="#000000" d="M 1203.5,855.5 C 1203.59,858.152 1202.92,860.485 1201.5,862.5C 1201.41,859.848 1202.08,857.515 1203.5,855.5 Z"/></g>
<g><path style="opacity:0.072" fill="#000000" d="M 398.5,867.5 C 400.104,868.287 400.771,869.62 400.5,871.5C 399.326,870.486 398.66,869.153 398.5,867.5 Z"/></g>
<g><path style="opacity:0.073" fill="#000000" d="M 406.5,885.5 C 407.931,886.78 408.598,888.447 408.5,890.5C 407.069,889.22 406.402,887.553 406.5,885.5 Z"/></g>
<g><path style="opacity:0.073" fill="#000000" d="M 1191.5,885.5 C 1191.6,887.553 1190.93,889.22 1189.5,890.5C 1189.4,888.447 1190.07,886.78 1191.5,885.5 Z"/></g>
<g><path style="opacity:0.093" fill="#000000" d="M 1185.5,899.5 C 1185.01,901.819 1184.01,903.819 1182.5,905.5C 1182.46,902.911 1183.46,900.911 1185.5,899.5 Z"/></g>
<g><path style="opacity:0.081" fill="#000000" d="M 413.5,900.5 C 414.931,901.78 415.598,903.447 415.5,905.5C 414.069,904.22 413.402,902.553 413.5,900.5 Z"/></g>
<g><path style="opacity:0.064" fill="#000000" d="M 424.5,922.5 C 426.539,923.911 427.539,925.911 427.5,928.5C 425.992,926.819 424.992,924.819 424.5,922.5 Z"/></g>
<g><path style="opacity:0.059" fill="#000000" d="M 1173.5,922.5 C 1173.01,924.819 1172.01,926.819 1170.5,928.5C 1170.46,925.911 1171.46,923.911 1173.5,922.5 Z"/></g>
<g><path style="opacity:0.077" fill="#000000" d="M 437.5,944.5 C 439.104,945.287 439.771,946.62 439.5,948.5C 438.326,947.486 437.66,946.153 437.5,944.5 Z"/></g>
<g><path style="opacity:0.079" fill="#000000" d="M 1160.5,944.5 C 1160.34,946.153 1159.67,947.486 1158.5,948.5C 1158.23,946.62 1158.9,945.287 1160.5,944.5 Z"/></g>
<g><path style="opacity:0.131" fill="#000000" d="M 1156.5,951.5 C 1156.57,953.027 1155.91,954.027 1154.5,954.5C 1154.43,952.973 1155.09,951.973 1156.5,951.5 Z"/></g>
<g><path style="opacity:0.069" fill="#000000" d="M 443.5,954.5 C 444.906,954.973 445.573,955.973 445.5,957.5C 444.094,957.027 443.427,956.027 443.5,954.5 Z"/></g>
<g><path style="opacity:0.07" fill="#000000" d="M 1154.5,954.5 C 1154.57,956.027 1153.91,957.027 1152.5,957.5C 1152.43,955.973 1153.09,954.973 1154.5,954.5 Z"/></g>
<g><path style="opacity:0.075" fill="#000000" d="M 455.5,971.5 C 456.833,971.5 457.5,972.167 457.5,973.5C 456.5,973.167 455.833,972.5 455.5,971.5 Z"/></g>
<g><path style="opacity:0.071" fill="#000000" d="M 1142.5,971.5 C 1142.17,972.5 1141.5,973.167 1140.5,973.5C 1140.5,972.167 1141.17,971.5 1142.5,971.5 Z"/></g>
<g><path style="opacity:0.115" fill="#000000" d="M 460.5,977.5 C 462.446,978.035 463.446,979.368 463.5,981.5C 462.026,980.564 461.026,979.23 460.5,977.5 Z"/></g>
<g><path style="opacity:0.115" fill="#000000" d="M 1137.5,977.5 C 1136.97,979.23 1135.97,980.564 1134.5,981.5C 1134.55,979.368 1135.55,978.035 1137.5,977.5 Z"/></g>
<g><path style="opacity:0.161" fill="#000000" d="M 465.5,983.5 C 466.906,983.973 467.573,984.973 467.5,986.5C 466.094,986.027 465.427,985.027 465.5,983.5 Z"/></g>
<g><path style="opacity:0.093" fill="#000000" d="M 1128.5,988.5 C 1127.58,991.089 1125.91,993.089 1123.5,994.5C 1124.42,991.911 1126.09,989.911 1128.5,988.5 Z"/></g>
<g><path style="opacity:0.078" fill="#000000" d="M 470.5,989.5 C 472.587,990.585 473.92,992.251 474.5,994.5C 472.413,993.415 471.08,991.749 470.5,989.5 Z"/></g>
<g><path style="opacity:0.11" fill="#000000" d="M 477.5,997.5 C 478.906,997.973 479.573,998.973 479.5,1000.5C 478.094,1000.03 477.427,999.027 477.5,997.5 Z"/></g>
<g><path style="opacity:0.114" fill="#000000" d="M 1120.5,997.5 C 1120.57,999.027 1119.91,1000.03 1118.5,1000.5C 1118.43,998.973 1119.09,997.973 1120.5,997.5 Z"/></g>
<g><path style="opacity:0.12" fill="#000000" d="M 484.5,1006.5 C 486.5,1006.5 487.5,1007.5 487.5,1009.5C 486.167,1008.83 485.167,1007.83 484.5,1006.5 Z"/></g>
<g><path style="opacity:0.12" fill="#000000" d="M 1113.5,1006.5 C 1112.83,1007.83 1111.83,1008.83 1110.5,1009.5C 1110.5,1007.5 1111.5,1006.5 1113.5,1006.5 Z"/></g>
<g><path style="opacity:0.121" fill="#000000" d="M 490.5,1012.5 C 492.587,1013.58 493.92,1015.25 494.5,1017.5C 492.413,1016.42 491.08,1014.75 490.5,1012.5 Z"/></g>
<g><path style="opacity:0.124" fill="#000000" d="M 1107.5,1012.5 C 1106.92,1014.75 1105.59,1016.42 1103.5,1017.5C 1104.08,1015.25 1105.41,1013.58 1107.5,1012.5 Z"/></g>
<g><path style="opacity:0.124" fill="#000000" d="M 496.5,1019.5 C 498.749,1020.08 500.415,1021.41 501.5,1023.5C 499.251,1022.92 497.585,1021.59 496.5,1019.5 Z"/></g>
<g><path style="opacity:0.121" fill="#000000" d="M 1101.5,1019.5 C 1100.42,1021.59 1098.75,1022.92 1096.5,1023.5C 1097.58,1021.41 1099.25,1020.08 1101.5,1019.5 Z"/></g>
<g><path style="opacity:0.12" fill="#000000" d="M 504.5,1026.5 C 506.5,1026.5 507.5,1027.5 507.5,1029.5C 506.167,1028.83 505.167,1027.83 504.5,1026.5 Z"/></g>
<g><path style="opacity:0.12" fill="#000000" d="M 1093.5,1026.5 C 1092.83,1027.83 1091.83,1028.83 1090.5,1029.5C 1090.5,1027.5 1091.5,1026.5 1093.5,1026.5 Z"/></g>
<g><path style="opacity:0.114" fill="#000000" d="M 513.5,1034.5 C 515.027,1034.43 516.027,1035.09 516.5,1036.5C 514.973,1036.57 513.973,1035.91 513.5,1034.5 Z"/></g>
<g><path style="opacity:0.11" fill="#000000" d="M 1084.5,1034.5 C 1084.03,1035.91 1083.03,1036.57 1081.5,1036.5C 1081.97,1035.09 1082.97,1034.43 1084.5,1034.5 Z"/></g>
<g><path style="opacity:0.093" fill="#000000" d="M 519.5,1039.5 C 522.089,1040.42 524.089,1042.09 525.5,1044.5C 522.911,1043.58 520.911,1041.91 519.5,1039.5 Z"/></g>
<g><path style="opacity:0.078" fill="#000000" d="M 1078.5,1039.5 C 1077.42,1041.59 1075.75,1042.92 1073.5,1043.5C 1074.58,1041.41 1076.25,1040.08 1078.5,1039.5 Z"/></g>
<g><path style="opacity:0.161" fill="#000000" d="M 1070.5,1046.5 C 1070.03,1047.91 1069.03,1048.57 1067.5,1048.5C 1067.97,1047.09 1068.97,1046.43 1070.5,1046.5 Z"/></g>
<g><path style="opacity:0.115" fill="#000000" d="M 532.5,1050.5 C 534.632,1050.55 535.965,1051.55 536.5,1053.5C 534.77,1052.97 533.436,1051.97 532.5,1050.5 Z"/></g>
<g><path style="opacity:0.115" fill="#000000" d="M 1065.5,1050.5 C 1064.56,1051.97 1063.23,1052.97 1061.5,1053.5C 1062.03,1051.55 1063.37,1050.55 1065.5,1050.5 Z"/></g>
<g><path style="opacity:0.071" fill="#000000" d="M 540.5,1056.5 C 541.833,1056.5 542.5,1057.17 542.5,1058.5C 541.5,1058.17 540.833,1057.5 540.5,1056.5 Z"/></g>
<g><path style="opacity:0.075" fill="#000000" d="M 1057.5,1056.5 C 1057.17,1057.5 1056.5,1058.17 1055.5,1058.5C 1055.5,1057.17 1056.17,1056.5 1057.5,1056.5 Z"/></g>
<g><path style="opacity:0.07" fill="#000000" d="M 556.5,1068.5 C 558.027,1068.43 559.027,1069.09 559.5,1070.5C 557.973,1070.57 556.973,1069.91 556.5,1068.5 Z"/></g>
<g><path style="opacity:0.069" fill="#000000" d="M 1041.5,1068.5 C 1041.03,1069.91 1040.03,1070.57 1038.5,1070.5C 1038.97,1069.09 1039.97,1068.43 1041.5,1068.5 Z"/></g>
<g><path style="opacity:0.131" fill="#000000" d="M 559.5,1070.5 C 561.027,1070.43 562.027,1071.09 562.5,1072.5C 560.973,1072.57 559.973,1071.91 559.5,1070.5 Z"/></g>
<g><path style="opacity:0.079" fill="#000000" d="M 565.5,1074.5 C 567.38,1074.23 568.713,1074.9 569.5,1076.5C 567.847,1076.34 566.514,1075.67 565.5,1074.5 Z"/></g>
<g><path style="opacity:0.077" fill="#000000" d="M 1032.5,1074.5 C 1031.49,1075.67 1030.15,1076.34 1028.5,1076.5C 1029.29,1074.9 1030.62,1074.23 1032.5,1074.5 Z"/></g>
<g><path style="opacity:0.059" fill="#000000" d="M 585.5,1086.5 C 588.089,1086.46 590.089,1087.46 591.5,1089.5C 589.181,1089.01 587.181,1088.01 585.5,1086.5 Z"/></g>
<g><path style="opacity:0.064" fill="#000000" d="M 1012.5,1086.5 C 1010.82,1088.01 1008.82,1089.01 1006.5,1089.5C 1007.91,1087.46 1009.91,1086.46 1012.5,1086.5 Z"/></g>
<g><path style="opacity:0.093" fill="#000000" d="M 608.5,1098.5 C 611.089,1098.46 613.089,1099.46 614.5,1101.5C 612.181,1101.01 610.181,1100.01 608.5,1098.5 Z"/></g>
<g><path style="opacity:0.081" fill="#000000" d="M 989.5,1098.5 C 988.22,1099.93 986.553,1100.6 984.5,1100.5C 985.78,1099.07 987.447,1098.4 989.5,1098.5 Z"/></g>
<g><path style="opacity:0.073" fill="#000000" d="M 623.5,1105.5 C 625.553,1105.4 627.22,1106.07 628.5,1107.5C 626.447,1107.6 624.78,1106.93 623.5,1105.5 Z"/></g>
<g><path style="opacity:0.073" fill="#000000" d="M 974.5,1105.5 C 973.22,1106.93 971.553,1107.6 969.5,1107.5C 970.78,1106.07 972.447,1105.4 974.5,1105.5 Z"/></g>
<g><path style="opacity:0.072" fill="#000000" d="M 955.5,1113.5 C 954.486,1114.67 953.153,1115.34 951.5,1115.5C 952.287,1113.9 953.62,1113.23 955.5,1113.5 Z"/></g>
<g><path style="opacity:0.075" fill="#000000" d="M 651.5,1117.5 C 654.152,1117.41 656.485,1118.08 658.5,1119.5C 655.848,1119.59 653.515,1118.92 651.5,1117.5 Z"/></g>
<g><path style="opacity:0.067" fill="#000000" d="M 946.5,1117.5 C 944.485,1118.92 942.152,1119.59 939.5,1119.5C 941.515,1118.08 943.848,1117.41 946.5,1117.5 Z"/></g>
<g><path style="opacity:0.072" fill="#000000" d="M 920.5,1125.5 C 918.786,1126.74 916.786,1127.41 914.5,1127.5C 916.102,1125.93 918.102,1125.26 920.5,1125.5 Z"/></g>
<g><path style="opacity:0.075" fill="#000000" d="M 691.5,1129.5 C 694.781,1129.42 697.781,1130.09 700.5,1131.5C 697.219,1131.58 694.219,1130.91 691.5,1129.5 Z"/></g>
<g><path style="opacity:0.067" fill="#000000" d="M 906.5,1129.5 C 903.456,1131.01 900.122,1131.68 896.5,1131.5C 899.589,1130.22 902.922,1129.55 906.5,1129.5 Z"/></g>
<g><path style="opacity:0.058" fill="#000000" d="M 760.5,1141.5 C 786.167,1142.83 811.833,1142.83 837.5,1141.5C 811.833,1144.17 786.167,1144.17 760.5,1141.5 Z"/></g>
<g><path style="opacity:0.869" fill="#fefffe" d="M 466.5,1573.5 C 480.749,1573.19 494.749,1574.52 508.5,1577.5C 508.833,1579 509.167,1580.5 509.5,1582C 506.111,1595.28 504.777,1608.78 505.5,1622.5C 513.704,1623.09 521.704,1622.42 529.5,1620.5C 535.003,1610.83 540.003,1600.83 544.5,1590.5C 545.539,1586.89 546.205,1583.23 546.5,1579.5C 559.486,1580.92 572.153,1583.58 584.5,1587.5C 587.561,1589.41 588.728,1592.07 588,1595.5C 585.113,1598.04 582.28,1600.71 579.5,1603.5C 576.321,1609.87 572.654,1615.87 568.5,1621.5C 588.654,1621.86 608.654,1622.86 628.5,1624.5C 627.48,1648.71 627.48,1672.88 628.5,1697C 622.779,1699.07 616.779,1699.91 610.5,1699.5C 605.833,1699.33 601.167,1699.17 596.5,1699C 595.109,1697.98 593.609,1697.15 592,1696.5C 591.5,1682.5 591.333,1668.5 591.5,1654.5C 523.5,1654.5 455.5,1654.5 387.5,1654.5C 387.5,1668.83 387.5,1683.17 387.5,1697.5C 375.167,1700.17 362.833,1700.17 350.5,1697.5C 350.059,1682.66 350.726,1668 352.5,1653.5C 352.311,1646.71 351.645,1640.04 350.5,1633.5C 350.833,1630.5 351.167,1627.5 351.5,1624.5C 368.33,1622.53 385.33,1621.87 402.5,1622.5C 401.666,1619.32 400.666,1616.15 399.5,1613C 394.444,1606.37 389.777,1599.54 385.5,1592.5C 385.919,1591.33 386.585,1590.33 387.5,1589.5C 397.436,1585.48 407.603,1582.15 418,1579.5C 419.167,1579.83 420.333,1580.17 421.5,1580.5C 429.616,1591.21 436.616,1602.71 442.5,1615C 441.978,1615.95 441.311,1616.78 440.5,1617.5C 437.007,1618.44 433.674,1619.78 430.5,1621.5C 443.149,1622.5 455.816,1622.83 468.5,1622.5C 468.822,1606.11 468.155,1589.78 466.5,1573.5 Z"/></g>
<g><path style="opacity:0.879" fill="#fefffe" d="M 843.5,1573.5 C 844.756,1573.46 845.756,1573.96 846.5,1575C 858.25,1575.13 869.917,1576.13 881.5,1578C 882.127,1579.74 882.46,1581.57 882.5,1583.5C 880.781,1591.37 880.115,1599.37 880.5,1607.5C 903.502,1607.67 926.502,1607.5 949.5,1607C 950.5,1605 951.5,1605 952.5,1607C 954.473,1607.5 956.473,1607.66 958.5,1607.5C 958.616,1615.51 957.949,1623.34 956.5,1631C 957.873,1638.33 958.54,1645.83 958.5,1653.5C 958.167,1657.5 957.833,1661.5 957.5,1665.5C 951.387,1667.4 945.053,1668.07 938.5,1667.5C 939.026,1672.41 938.359,1677.08 936.5,1681.5C 924.518,1682.5 912.518,1682.83 900.5,1682.5C 902.54,1691 905.04,1699.33 908,1707.5C 908.497,1709.81 908.663,1712.14 908.5,1714.5C 909.978,1714.76 911.311,1714.43 912.5,1713.5C 917.455,1706.4 922.121,1699.07 926.5,1691.5C 928.536,1689.66 930.87,1689.16 933.5,1690C 940.286,1695.23 947.286,1700.23 954.5,1705C 956.078,1707.49 957.411,1710.16 958.5,1713C 958.561,1714.71 957.894,1716.04 956.5,1717C 949.436,1719.9 944.103,1724.73 940.5,1731.5C 934.037,1737.29 928.37,1743.62 923.5,1750.5C 924.987,1754.12 926.32,1757.78 927.5,1761.5C 938.855,1782.86 953.189,1802.03 970.5,1819C 965.978,1825.02 961.645,1831.19 957.5,1837.5C 955.738,1842.02 953.738,1846.35 951.5,1850.5C 948.813,1850.66 946.146,1850.5 943.5,1850C 927.589,1831.63 914.256,1811.47 903.5,1789.5C 896.694,1773.57 890.194,1757.57 884,1741.5C 878.818,1722.87 873.818,1704.2 869,1685.5C 863.117,1690.38 857.951,1695.88 853.5,1702C 865.03,1716.89 874.53,1733.06 882,1750.5C 885.301,1761.45 888.134,1772.45 890.5,1783.5C 893.306,1798.62 894.14,1813.95 893,1829.5C 892.085,1835.63 890.585,1841.63 888.5,1847.5C 885.994,1851.85 883.494,1856.18 881,1860.5C 874.391,1865.05 867.224,1868.39 859.5,1870.5C 846.5,1871.83 833.5,1871.83 820.5,1870.5C 817.087,1859.93 813.087,1849.59 808.5,1839.5C 800.734,1844.05 792.734,1848.05 784.5,1851.5C 780.833,1852.83 777.167,1852.83 773.5,1851.5C 769.13,1846.75 765.797,1841.41 763.5,1835.5C 758.951,1832.97 755.951,1829.3 754.5,1824.5C 761.994,1821.7 769.66,1819.03 777.5,1816.5C 787.217,1810.97 797.217,1805.97 807.5,1801.5C 819.968,1793.89 831.968,1785.56 843.5,1776.5C 846.5,1773.5 849.5,1770.5 852.5,1767.5C 851.132,1765.36 850.132,1763.03 849.5,1760.5C 846.684,1759.87 844.018,1760.54 841.5,1762.5C 838.245,1766.17 834.578,1769.33 830.5,1772C 822.846,1775.83 815.513,1780.16 808.5,1785C 800.573,1788.23 792.573,1791.39 784.5,1794.5C 783.167,1794.17 781.833,1793.83 780.5,1793.5C 776.278,1788.83 772.944,1783.5 770.5,1777.5C 767.709,1775.26 765.376,1772.6 763.5,1769.5C 760.002,1771.11 757.002,1770.45 754.5,1767.5C 750.781,1759.73 746.781,1752.06 742.5,1744.5C 742.167,1758.67 741.833,1772.83 741.5,1787C 743.004,1816.02 743.504,1845.19 743,1874.5C 730.914,1875.49 718.747,1875.82 706.5,1875.5C 707.392,1835.5 707.559,1795.5 707,1755.5C 702.617,1767.64 697.451,1779.47 691.5,1791C 687.96,1796.58 684.293,1802.08 680.5,1807.5C 679.571,1808.69 679.238,1810.02 679.5,1811.5C 677.4,1811.48 675.567,1812.14 674,1813.5C 672.346,1812.35 670.846,1811.01 669.5,1809.5C 667.069,1802.92 664.735,1796.25 662.5,1789.5C 661.229,1786.57 659.562,1783.9 657.5,1781.5C 664.634,1770.71 671.801,1760.05 679,1749.5C 682.901,1741.37 687.068,1733.37 691.5,1725.5C 694.858,1716.44 698.525,1707.44 702.5,1698.5C 689.851,1697.5 677.184,1697.17 664.5,1697.5C 664.5,1686.17 664.5,1674.83 664.5,1663.5C 678.833,1663.5 693.167,1663.5 707.5,1663.5C 707.667,1652.16 707.5,1640.83 707,1629.5C 701.623,1631.56 696.123,1633.39 690.5,1635C 686.789,1635.83 683.122,1635.66 679.5,1634.5C 675.781,1626.73 671.781,1619.06 667.5,1611.5C 666.03,1608.41 666.697,1605.91 669.5,1604C 699.442,1600.8 727.609,1591.96 754,1577.5C 757.014,1578.84 759.847,1580.51 762.5,1582.5C 766.414,1588.42 771.08,1593.75 776.5,1598.5C 777.484,1601.43 777.817,1604.43 777.5,1607.5C 799.167,1607.5 820.833,1607.5 842.5,1607.5C 842.666,1598.83 842.5,1590.16 842,1581.5C 841.009,1580.57 840.509,1579.4 840.5,1578C 841.008,1576.11 842.008,1574.61 843.5,1573.5 Z M 764.5,1611.5 C 766.167,1611.5 767.833,1611.5 769.5,1611.5C 769.5,1628.83 769.5,1646.17 769.5,1663.5C 760.167,1663.5 750.833,1663.5 741.5,1663.5C 741.5,1649.17 741.5,1634.83 741.5,1620.5C 748.614,1617.49 755.948,1614.99 763.5,1613C 764.056,1612.62 764.389,1612.12 764.5,1611.5 Z M 805.5,1635.5 C 844.167,1635.5 882.833,1635.5 921.5,1635.5C 921.5,1641.17 921.5,1646.83 921.5,1652.5C 882.833,1652.5 844.167,1652.5 805.5,1652.5C 805.5,1646.83 805.5,1641.17 805.5,1635.5 Z M 773.5,1667.5 C 779.167,1667.5 784.833,1667.5 790.5,1667.5C 789.974,1672.41 790.641,1677.08 792.5,1681.5C 803.5,1682.17 814.5,1682.83 825.5,1683.5C 806.889,1696.64 786.556,1705.64 764.5,1710.5C 763.66,1714.54 764.993,1717.54 768.5,1719.5C 772.521,1726.53 776.854,1733.36 781.5,1740C 785.728,1740.49 789.728,1739.65 793.5,1737.5C 804.759,1733.2 815.426,1727.87 825.5,1721.5C 828.327,1724.83 830.994,1728.33 833.5,1732C 826.272,1737.2 818.772,1742.03 811,1746.5C 805.182,1748.49 799.682,1751.16 794.5,1754.5C 785.352,1758.56 776.019,1761.9 766.5,1764.5C 766.167,1763.83 765.833,1763.17 765.5,1762.5C 766.613,1760.22 767.613,1757.88 768.5,1755.5C 771.535,1751.14 774.535,1746.81 777.5,1742.5C 769.404,1733.74 762.071,1724.41 755.5,1714.5C 752.827,1709.16 750.16,1703.83 747.5,1698.5C 756.007,1698.1 764.34,1697.1 772.5,1695.5C 773.498,1686.19 773.832,1676.86 773.5,1667.5 Z M 857.5,1802.5 C 860.323,1812.88 859.323,1823.22 854.5,1833.5C 853.019,1834.48 851.685,1835.65 850.5,1837C 838.655,1839.49 826.655,1840.16 814.5,1839C 813.833,1838.33 813.167,1837.67 812.5,1837C 814.635,1835.62 816.968,1834.62 819.5,1834C 828.714,1826.94 838.048,1820.11 847.5,1813.5C 851.101,1809.88 854.434,1806.21 857.5,1802.5 Z"/></g>
<g><path style="opacity:0.883" fill="#fefffe" d="M 1035.5,1573.5 C 1047.82,1576 1059.82,1579.83 1071.5,1585C 1075,1588.19 1075.34,1591.69 1072.5,1595.5C 1074.83,1595.83 1077.17,1596.17 1079.5,1596.5C 1108.1,1593.74 1136.27,1588.74 1164,1581.5C 1165.5,1581.83 1167,1582.17 1168.5,1582.5C 1172.7,1588.22 1177.37,1593.56 1182.5,1598.5C 1184.28,1601.67 1185.11,1605.01 1185,1608.5C 1184.31,1609.03 1183.81,1609.69 1183.5,1610.5C 1168.53,1612.77 1153.53,1615.1 1138.5,1617.5C 1136.62,1622.6 1135.95,1627.93 1136.5,1633.5C 1146.05,1632.04 1155.72,1631.37 1165.5,1631.5C 1171.5,1631.83 1177.5,1632.17 1183.5,1632.5C 1185.07,1638.32 1186.07,1644.32 1186.5,1650.5C 1188.96,1649.28 1191.63,1648.62 1194.5,1648.5C 1199.04,1648.46 1203.37,1649.13 1207.5,1650.5C 1207.67,1629.16 1207.5,1607.83 1207,1586.5C 1205.8,1584.32 1205.3,1581.99 1205.5,1579.5C 1214.17,1579.33 1222.84,1579.5 1231.5,1580C 1235.9,1580.85 1240.23,1582.01 1244.5,1583.5C 1244.83,1585 1245.17,1586.5 1245.5,1588C 1244.5,1592.5 1243.5,1597 1242.5,1601.5C 1241.5,1617.82 1241.17,1634.15 1241.5,1650.5C 1252.34,1650.81 1263.01,1650.14 1273.5,1648.5C 1276.83,1648.67 1280.17,1648.83 1283.5,1649C 1284.03,1649.69 1284.69,1650.19 1285.5,1650.5C 1285.83,1659.5 1286.17,1668.5 1286.5,1677.5C 1284.95,1709.02 1284.11,1740.69 1284,1772.5C 1282.69,1782.67 1282.02,1793.01 1282,1803.5C 1280.48,1817.1 1278.81,1830.76 1277,1844.5C 1275.03,1850.91 1272.2,1856.91 1268.5,1862.5C 1255.77,1870.75 1241.77,1873.41 1226.5,1870.5C 1223.63,1869.92 1220.96,1868.92 1218.5,1867.5C 1216.78,1856.33 1214.45,1845.33 1211.5,1834.5C 1222.18,1835.66 1232.85,1835.66 1243.5,1834.5C 1245.63,1826.97 1247.3,1819.31 1248.5,1811.5C 1252.13,1768.7 1253.46,1725.7 1252.5,1682.5C 1248.82,1682.33 1245.15,1682.5 1241.5,1683C 1241,1683.5 1240.5,1684 1240,1684.5C 1238.7,1708.44 1236.7,1732.44 1234,1756.5C 1231.68,1766.32 1229.68,1776.32 1228,1786.5C 1224.52,1795.69 1221.52,1805.02 1219,1814.5C 1210.83,1834.53 1200.33,1853.2 1187.5,1870.5C 1183.92,1871.54 1180.59,1870.87 1177.5,1868.5C 1173.14,1863.48 1168.14,1859.14 1162.5,1855.5C 1161.28,1853.78 1160.28,1851.95 1159.5,1850C 1159.84,1848.63 1160.51,1847.47 1161.5,1846.5C 1160.17,1846.17 1158.83,1845.83 1157.5,1845.5C 1129.93,1849.75 1102.26,1853.75 1074.5,1857.5C 1070.22,1859.09 1066.05,1860.76 1062,1862.5C 1059.48,1860.49 1057.98,1857.82 1057.5,1854.5C 1055.29,1845.16 1053.62,1835.82 1052.5,1826.5C 1059.51,1826.67 1066.51,1826.5 1073.5,1826C 1084.48,1825.07 1095.48,1823.91 1106.5,1822.5C 1106.5,1818.17 1106.5,1813.83 1106.5,1809.5C 1091.15,1809.83 1075.82,1809.5 1060.5,1808.5C 1059.17,1799.83 1059.17,1791.17 1060.5,1782.5C 1075.82,1781.5 1091.15,1781.17 1106.5,1781.5C 1106.5,1777.17 1106.5,1772.83 1106.5,1768.5C 1091.4,1768.63 1076.4,1768.63 1061.5,1768.5C 1061.5,1736.83 1061.5,1705.17 1061.5,1673.5C 1076.47,1672.86 1091.47,1672.86 1106.5,1673.5C 1106.5,1669.5 1106.5,1665.5 1106.5,1661.5C 1089.83,1661.5 1073.17,1661.5 1056.5,1661.5C 1056.67,1652.49 1056.5,1643.49 1056,1634.5C 1052.49,1642.18 1048.99,1649.85 1045.5,1657.5C 1044.5,1730.16 1044.17,1802.83 1044.5,1875.5C 1033.5,1875.5 1022.5,1875.5 1011.5,1875.5C 1011.83,1823.5 1011.5,1771.5 1010.5,1719.5C 1007.23,1724.44 1003.56,1729.11 999.5,1733.5C 993.783,1735.57 990.449,1733.57 989.5,1727.5C 987.785,1717.51 985.119,1707.84 981.5,1698.5C 1003.65,1667.87 1020.15,1634.54 1031,1598.5C 1033.16,1590.34 1034.66,1582.01 1035.5,1573.5 Z M 1065.5,1605.5 C 1069.42,1611.38 1073.08,1617.55 1076.5,1624C 1080,1624.17 1083.5,1624.33 1087,1624.5C 1093.53,1623.93 1100.03,1623.26 1106.5,1622.5C 1106.5,1626.17 1106.5,1629.83 1106.5,1633.5C 1096.5,1632.05 1086.34,1631.38 1076,1631.5C 1069.59,1631.51 1063.26,1631.84 1057,1632.5C 1058.7,1623.23 1061.53,1614.23 1065.5,1605.5 Z M 1183.5,1659.5 C 1185.47,1666.76 1186.13,1674.43 1185.5,1682.5C 1192.83,1682.5 1200.17,1682.5 1207.5,1682.5C 1207.71,1724.01 1200.71,1764.01 1186.5,1802.5C 1182.28,1809.61 1178.61,1816.95 1175.5,1824.5C 1174.52,1821.57 1174.18,1818.57 1174.5,1815.5C 1161.83,1816.83 1149.17,1818.17 1136.5,1819.5C 1136.5,1816.17 1136.5,1812.83 1136.5,1809.5C 1150.17,1809.5 1163.83,1809.5 1177.5,1809.5C 1177.5,1800.17 1177.5,1790.83 1177.5,1781.5C 1163.83,1781.5 1150.17,1781.5 1136.5,1781.5C 1136.5,1777.17 1136.5,1772.83 1136.5,1768.5C 1152.32,1768.61 1167.99,1768.61 1183.5,1768.5C 1183.5,1736.83 1183.5,1705.17 1183.5,1673.5C 1167.87,1672.86 1152.2,1672.86 1136.5,1673.5C 1136.5,1669.5 1136.5,1665.5 1136.5,1661.5C 1152.54,1662.15 1168.2,1661.48 1183.5,1659.5 Z M 1089.5,1697.5 C 1095.17,1697.5 1100.83,1697.5 1106.5,1697.5C 1106.5,1701.17 1106.5,1704.83 1106.5,1708.5C 1100.83,1708.5 1095.17,1708.5 1089.5,1708.5C 1089.5,1704.83 1089.5,1701.17 1089.5,1697.5 Z M 1136.5,1697.5 C 1142.83,1697.5 1149.17,1697.5 1155.5,1697.5C 1155.5,1701.17 1155.5,1704.83 1155.5,1708.5C 1149.17,1708.5 1142.83,1708.5 1136.5,1708.5C 1136.5,1704.83 1136.5,1701.17 1136.5,1697.5 Z M 1089.5,1731.5 C 1095.17,1731.5 1100.83,1731.5 1106.5,1731.5C 1106.5,1735.83 1106.5,1740.17 1106.5,1744.5C 1100.83,1744.5 1095.17,1744.5 1089.5,1744.5C 1089.5,1740.17 1089.5,1735.83 1089.5,1731.5 Z M 1136.5,1731.5 C 1142.83,1731.5 1149.17,1731.5 1155.5,1731.5C 1155.5,1735.83 1155.5,1740.17 1155.5,1744.5C 1149.17,1744.5 1142.83,1744.5 1136.5,1744.5C 1136.5,1740.17 1136.5,1735.83 1136.5,1731.5 Z"/></g>
<g><path style="opacity:0.897" fill="#fefffe" d="M 1440.5,1573.5 C 1453.49,1574.42 1466.49,1575.42 1479.5,1576.5C 1483.22,1577.1 1484.88,1579.27 1484.5,1583C 1484.29,1586.39 1483.46,1589.56 1482,1592.5C 1481.5,1607.5 1481.33,1622.5 1481.5,1637.5C 1517.99,1636.85 1554.32,1637.52 1590.5,1639.5C 1589.35,1688.7 1589.35,1738.03 1590.5,1787.5C 1584.51,1788.79 1578.34,1789.46 1572,1789.5C 1566.17,1789.17 1560.33,1788.83 1554.5,1788.5C 1552.62,1783.4 1551.95,1778.07 1552.5,1772.5C 1528.83,1772.5 1505.17,1772.5 1481.5,1772.5C 1481.67,1806.5 1481.5,1840.5 1481,1874.5C 1467.91,1875.49 1454.75,1875.82 1441.5,1875.5C 1441.5,1841.17 1441.5,1806.83 1441.5,1772.5C 1419.17,1772.5 1396.83,1772.5 1374.5,1772.5C 1374.67,1777.84 1374.5,1783.18 1374,1788.5C 1373.5,1789 1373,1789.5 1372.5,1790C 1360.45,1790.81 1348.45,1790.65 1336.5,1789.5C 1336.17,1780.33 1335.83,1771.17 1335.5,1762C 1336.17,1743.33 1336.83,1724.67 1337.5,1706C 1335.98,1683.32 1335.31,1660.48 1335.5,1637.5C 1370.83,1637.5 1406.17,1637.5 1441.5,1637.5C 1442.04,1618.1 1441.38,1598.76 1439.5,1579.5C 1439.57,1577.41 1439.91,1575.41 1440.5,1573.5 Z M 1374.5,1672.5 C 1396.83,1672.5 1419.17,1672.5 1441.5,1672.5C 1441.5,1693.83 1441.5,1715.17 1441.5,1736.5C 1419.17,1736.5 1396.83,1736.5 1374.5,1736.5C 1374.5,1715.17 1374.5,1693.83 1374.5,1672.5 Z M 1481.5,1672.5 C 1505.17,1672.5 1528.83,1672.5 1552.5,1672.5C 1552.5,1693.83 1552.5,1715.17 1552.5,1736.5C 1528.83,1736.5 1505.17,1736.5 1481.5,1736.5C 1481.5,1715.17 1481.5,1693.83 1481.5,1672.5 Z"/></g>
<g><path style="opacity:0.908" fill="#fefffe" d="M 30.5,1592.5 C 120.833,1592.5 211.167,1592.5 301.5,1592.5C 302.134,1604.92 301.467,1617.08 299.5,1629C 264.177,1628.64 228.844,1628.47 193.5,1628.5C 193.5,1652.83 193.5,1677.17 193.5,1701.5C 222.169,1701.33 250.835,1701.5 279.5,1702C 280,1702.5 280.5,1703 281,1703.5C 281.667,1714.17 281.667,1724.83 281,1735.5C 280.308,1736.03 279.808,1736.69 279.5,1737.5C 274,1737.83 268.5,1738.17 263,1738.5C 239.99,1736.73 216.824,1736.06 193.5,1736.5C 193.5,1764.5 193.5,1792.5 193.5,1820.5C 231.543,1820.83 269.543,1820.49 307.5,1819.5C 308.833,1820.17 310.167,1820.83 311.5,1821.5C 312.833,1833.17 312.833,1844.83 311.5,1856.5C 310.692,1856.81 310.025,1857.31 309.5,1858C 306.667,1858.17 303.833,1858.33 301,1858.5C 297.645,1858.62 294.478,1858.12 291.5,1857C 249.5,1856.83 207.5,1856.67 165.5,1856.5C 117.349,1856.38 69.3489,1856.88 21.5,1858C 20.6667,1857.17 19.8333,1856.33 19,1855.5C 18.1796,1843.92 18.3463,1832.42 19.5,1821C 35.4965,1820.5 51.4965,1820.33 67.5,1820.5C 67.6667,1782.17 67.5,1743.83 67,1705.5C 65.5795,1696.63 64.9128,1687.63 65,1678.5C 67.5539,1677.23 70.3872,1676.56 73.5,1676.5C 85.8506,1677.74 98.1839,1679.08 110.5,1680.5C 110.734,1686.38 109.734,1692.05 107.5,1697.5C 106.5,1738.49 106.167,1779.49 106.5,1820.5C 122.167,1820.5 137.833,1820.5 153.5,1820.5C 153.5,1756.5 153.5,1692.5 153.5,1628.5C 113.156,1628.45 72.8231,1628.62 32.5,1629C 30.5325,1617.08 29.8659,1604.92 30.5,1592.5 Z"/></g>
<g><path style="opacity:0.887" fill="#fefffe" d="M 408.5,1667.5 C 462.167,1667.5 515.833,1667.5 569.5,1667.5C 569.5,1694.17 569.5,1720.83 569.5,1747.5C 548.164,1747.28 526.831,1746.95 505.5,1746.5C 505.5,1752.5 505.5,1758.5 505.5,1764.5C 539.833,1764.5 574.167,1764.5 608.5,1764.5C 608.833,1790.18 608.5,1815.84 607.5,1841.5C 606.135,1846.95 603.468,1851.62 599.5,1855.5C 582.917,1862.04 565.584,1864.21 547.5,1862C 546.382,1860.93 545.382,1859.76 544.5,1858.5C 542.437,1848.77 539.437,1839.44 535.5,1830.5C 546.187,1830.83 556.854,1830.5 567.5,1829.5C 568.5,1828.5 569.5,1827.5 570.5,1826.5C 571.498,1817.19 571.832,1807.86 571.5,1798.5C 549.5,1798.5 527.5,1798.5 505.5,1798.5C 505.5,1824.17 505.5,1849.83 505.5,1875.5C 493.167,1875.5 480.833,1875.5 468.5,1875.5C 468.5,1849.83 468.5,1824.17 468.5,1798.5C 448.5,1798.5 428.5,1798.5 408.5,1798.5C 408.5,1819.83 408.5,1841.17 408.5,1862.5C 395.92,1862.82 383.42,1862.49 371,1861.5C 370.333,1829.5 370.333,1797.5 371,1765.5C 403.427,1764.5 435.927,1764.17 468.5,1764.5C 468.5,1758.5 468.5,1752.5 468.5,1746.5C 449.168,1747.16 429.835,1747.33 410.5,1747C 410,1746.5 409.5,1746 409,1745.5C 408.5,1719.5 408.333,1693.5 408.5,1667.5 Z M 443.5,1697.5 C 474.167,1697.5 504.833,1697.5 535.5,1697.5C 535.5,1704.17 535.5,1710.83 535.5,1717.5C 504.833,1717.5 474.167,1717.5 443.5,1717.5C 443.5,1710.83 443.5,1704.17 443.5,1697.5 Z"/></g>
</svg>
